<svg width="68" height="77" viewBox="0 0 68 77" fill="none" xmlns="http://www.w3.org/2000/svg">
<g clip-path="url(#clip0_630_218)">
<path d="M55.2501 0H12.7501C6.46435 0 0.000116825 10.6945 2.12509 14.9723C5.55063 21.8702 27.6251 42.778 27.6251 42.778H40.3751C40.3751 42.778 61.625 21.389 65.8752 14.9723C68.0003 10.6945 60.9175 0 55.2501 0ZM46.7501 17.1112L34.0001 29.9446L21.2501 17.1112C20.1196 15.9733 19.4587 15.1455 19.3503 14.5317C19.0507 12.8398 23.0819 12.8334 34.0001 12.8334C48.6964 12.8334 49.8867 13.6355 47.8804 15.9262C47.5684 16.2856 47.1815 16.677 46.7501 17.1112Z" fill="#55ACEE"/>
<path d="M19.3505 14.5317C19.0509 12.8398 23.082 12.8334 34.0002 12.8334C48.6966 12.8334 49.8868 13.6355 47.8806 15.9262C59.2154 4.03182 55.6645 0 51.0005 0H17.0002C9.39485 0 14.854 8.76306 19.3505 14.5317Z" fill="#3B88C3"/>
<path d="M42.2917 44.9597C42.4192 44.6111 42.4998 44.2389 42.4998 43.8475C42.4998 42.0765 41.0718 40.6392 39.3125 40.6392H28.6875C26.9259 40.6392 25.5 42.0765 25.5 43.8475C25.5 44.2389 25.5807 44.6111 25.7082 44.9597C20.5147 47.8879 17 53.4727 17 59.8893C17 69.3387 24.6096 77.0005 34 77.0005C43.3883 77.0005 51.0002 69.3387 51.0002 59.8893C51.0002 53.4727 47.4854 47.8879 42.2917 44.9597Z" fill="#FFAC33"/>
<path d="M36.2356 49.0874H33.4922L29.1423 52.5078C29.0531 52.5976 28.9639 52.8369 28.9639 52.957V54.8476C28.9639 55.1473 29.2019 55.4165 29.4994 55.4165H32.3596V68.9151C32.3596 69.2165 32.5976 69.4862 32.927 69.4862H36.2356C36.5331 69.4862 36.7711 69.2165 36.7711 68.9151V49.6585C36.7711 49.3571 36.531 49.0874 36.2356 49.0874Z" fill="#9E5200"/>
</g>
<defs>
<clipPath id="clip0_630_218">
<rect width="68" height="77" fill="white"/>
</clipPath>
</defs>
</svg>
