<svg width="68" height="77" viewBox="0 0 68 77" fill="none" xmlns="http://www.w3.org/2000/svg">
<g clip-path="url(#clip0_630_224)">
<path d="M55.2496 0H12.7496C6.46386 0 -0.000371575 10.6945 2.12461 14.9723C5.55014 21.8702 27.6246 42.778 27.6246 42.778H40.3746C40.3746 42.778 61.6245 21.389 65.8747 14.9723C67.9999 10.6945 60.917 0 55.2496 0ZM46.7496 17.1112L33.9996 29.9446L21.2496 17.1112C20.1191 15.9733 19.4583 15.1455 19.3499 14.5317C19.0503 12.8398 23.0814 12.8334 33.9996 12.8334C48.696 12.8334 49.8862 13.6355 47.88 15.9262C47.5679 16.2856 47.181 16.677 46.7496 17.1112Z" fill="#55ACEE"/>
<path d="M19.35 14.5317C19.0504 12.8398 23.0815 12.8334 33.9997 12.8334C48.6961 12.8334 49.8863 13.6355 47.8801 15.9262C59.2149 4.03182 55.664 0 51 0H16.9997C9.39437 0 14.8535 8.76306 19.35 14.5317Z" fill="#3B88C3"/>
<path d="M42.2917 44.9597C42.4192 44.6111 42.4998 44.2389 42.4998 43.8475C42.4998 42.0765 41.0718 40.6392 39.3125 40.6392H28.6875C26.9259 40.6392 25.5 42.0765 25.5 43.8475C25.5 44.2389 25.5807 44.6111 25.7082 44.9597C20.5147 47.8879 17 53.4727 17 59.8893C17 69.3387 24.6096 77.0005 34 77.0005C43.3883 77.0005 51.0002 69.3387 51.0002 59.8893C51.0002 53.4727 47.4854 47.8879 42.2917 44.9597Z" fill="#CCD6DD"/>
<path d="M40.375 65.6426H34.7288C36.1292 63.6622 38.573 60.4539 39.525 58.7428C40.2411 57.3331 40.6873 56.4347 40.6873 54.8455C40.6873 51.5153 38.1841 48.7861 33.9234 48.7861C30.3768 48.7861 27.9628 51.7252 27.9628 51.7252C27.7546 51.9645 27.7844 52.324 27.9926 52.5057L29.8094 54.3642C30.0474 54.6039 30.4045 54.6039 30.6446 54.3642C31.2098 53.7332 32.3127 52.8652 33.5346 52.8652C35.2027 52.8652 36.159 53.885 36.159 55.0255C36.159 55.8659 35.7701 56.7044 35.3833 57.3032C33.6238 60.0025 29.2145 66.0319 27.4868 68.3101V68.9089C27.4868 69.2103 27.7248 69.48 28.0521 69.48H40.375C40.6725 69.48 40.9425 69.2103 40.9425 68.9089V66.2096C40.9425 65.9123 40.6725 65.6426 40.375 65.6426Z" fill="#627077"/>
</g>
<defs>
<clipPath id="clip0_630_224">
<rect width="68" height="77" fill="white"/>
</clipPath>
</defs>
</svg>
