<svg width="68" height="77" viewBox="0 0 68 77" fill="none" xmlns="http://www.w3.org/2000/svg">
<g clip-path="url(#clip0_630_230)">
<path d="M55.2496 0H12.7497C6.46389 0 -0.000381589 10.6944 2.12461 14.9722C5.55014 21.8701 27.6247 42.7778 27.6247 42.7778H40.3747C40.3747 42.7778 61.6249 21.3889 65.8749 14.9722C67.9997 10.6944 60.9174 0 55.2496 0ZM46.7499 17.1111L33.9997 29.9444L21.2497 17.1111C20.1192 15.9732 19.4583 15.1455 19.3499 14.5316C19.0503 12.8397 23.0814 12.8333 33.9997 12.8333C48.6963 12.8333 49.8864 13.6354 47.8802 15.9262C47.5679 16.2855 47.1813 16.6769 46.7499 17.1111Z" fill="#55ACEE"/>
<path d="M19.35 14.5316C19.0504 12.8397 23.0815 12.8333 33.9998 12.8333C48.6964 12.8333 49.8865 13.6354 47.8803 15.9262C59.215 4.03181 55.6643 0 51 0H16.9997C9.39435 0 14.8535 8.76301 19.35 14.5316Z" fill="#3B88C3"/>
<path d="M42.292 44.9597C42.4192 44.611 42.5002 44.2389 42.5002 43.8475C42.5002 42.0765 41.072 40.6392 39.3126 40.6392H28.6876C26.9259 40.6392 25.5 42.0765 25.5 43.8475C25.5 44.2389 25.5808 44.611 25.7083 44.9597C20.5148 47.8879 17 53.4724 17 59.8889C17 69.339 24.6097 77.0002 34.0001 77.0002C43.3883 77.0002 51.0003 69.339 51.0003 59.8889C51.0003 53.4724 47.4854 47.8879 42.292 44.9597Z" fill="#FF8A3B"/>
<path d="M27.8138 66.3334L29.6923 64.4426C29.9005 64.2307 30.198 64.203 30.4382 64.3825C30.4382 64.3825 32.2848 65.7644 33.7149 65.7644C34.9984 65.7644 36.3096 64.6841 36.3096 63.3646C36.3096 62.0447 34.9666 60.9348 32.7629 60.9348H31.745C31.4476 60.9348 31.1798 60.6655 31.1798 60.3639V57.8739C31.1798 57.5445 31.4476 57.303 31.745 57.303H32.7629C34.8476 57.303 35.9504 56.2829 35.9504 54.9953C35.9504 53.7032 34.8476 52.745 33.5662 52.745C32.2551 52.745 31.4199 53.4339 30.9737 53.9451C30.7633 54.1843 30.4063 54.1843 30.1704 53.977L28.3536 52.1759C28.1134 51.9645 28.1432 51.605 28.3536 51.3977C28.3536 51.3977 30.7952 48.7583 34.0443 48.7583C37.5017 48.7583 40.481 50.8883 40.481 54.2467C40.481 56.5544 38.7533 58.2653 37.4124 58.8945V58.9861C38.8128 59.5852 41.0164 61.4437 41.0164 64.0234C41.0164 67.2916 38.186 69.7533 34.0719 69.7533C30.3192 69.7533 28.4109 67.8926 27.7861 67.0843C27.6034 66.8724 27.6353 66.5407 27.8138 66.3334Z" fill="#7C4119"/>
</g>
<defs>
<clipPath id="clip0_630_230">
<rect width="68" height="77" fill="white"/>
</clipPath>
</defs>
</svg>
