<svg width="291" height="283" viewBox="0 0 291 283" fill="none" xmlns="http://www.w3.org/2000/svg">
<g clip-path="url(#clip0)">
<path d="M291.335 159.604H284.082V166.849H291.335V159.604Z" fill="#B28C42"/>
<path d="M291.335 152.353H284.082V159.604H291.335V152.353Z" fill="#B28C42"/>
<path d="M291.335 145.016H284.082V152.352H291.335V145.016Z" fill="#B28C42"/>
<path d="M291.335 137.771H284.082V145.016H291.335V137.771Z" fill="#B28C42"/>
<path d="M291.335 130.526H284.082V137.771H291.335V130.526Z" fill="#B28C42"/>
<path d="M291.335 123.274H284.082V130.526H291.335V123.274Z" fill="#B28C42"/>
<path d="M284.082 188.683H276.83V196.019H284.082V188.683Z" fill="#B28C42"/>
<path d="M284.082 181.431H276.83V188.683H284.082V181.431Z" fill="#B28C42"/>
<path d="M284.082 174.186H276.83V181.43H284.082V174.186Z" fill="#B28C42"/>
<path d="M284.082 166.849H276.83V174.186H284.082V166.849Z" fill="#B28C42"/>
<path d="M284.082 159.604H276.83V166.849H284.082V159.604Z" fill="#B28C42"/>
<path d="M284.082 152.353H276.83V159.604H284.082V152.353Z" fill="#B28C42"/>
<path d="M284.082 145.016H276.83V152.352H284.082V145.016Z" fill="#B28C42"/>
<path d="M284.082 137.771H276.83V145.016H284.082V137.771Z" fill="#B28C42"/>
<path d="M284.082 130.526H276.83V137.771H284.082V130.526Z" fill="#B28C42"/>
<path d="M284.082 123.274H276.83V130.526H284.082V123.274Z" fill="#B28C42"/>
<path d="M284.082 115.937H276.83V123.274H284.082V115.937Z" fill="#B28C42"/>
<path d="M284.082 108.692H276.83V115.937H284.082V108.692Z" fill="#B28C42"/>
<path d="M284.082 101.447H276.83V108.692H284.082V101.447Z" fill="#B28C42"/>
<path d="M284.082 94.1038H276.83V101.447H284.082V94.1038Z" fill="#B28C42"/>
<path d="M276.83 203.265H269.485V210.51H276.83V203.265Z" fill="#B28C42"/>
<path d="M276.83 196.019H269.485V203.264H276.83V196.019Z" fill="#B28C42"/>
<path d="M276.83 188.683H269.485V196.019H276.83V188.683Z" fill="#B28C42"/>
<path d="M276.83 181.431H269.485V188.683H276.83V181.431Z" fill="#725325"/>
<path d="M276.83 174.186H269.485V181.43H276.83V174.186Z" fill="#725325"/>
<path d="M276.83 166.849H269.485V174.186H276.83V166.849Z" fill="#725325"/>
<path d="M276.83 159.604H269.485V166.849H276.83V159.604Z" fill="#725325"/>
<path d="M276.83 152.353H269.485V159.604H276.83V152.353Z" fill="#725325"/>
<path d="M276.83 145.016H269.485V152.352H276.83V145.016Z" fill="#725325"/>
<path d="M276.83 137.771H269.485V145.016H276.83V137.771Z" fill="#725325"/>
<path d="M276.83 130.526H269.485V137.771H276.83V130.526Z" fill="#725325"/>
<path d="M276.83 123.274H269.485V130.526H276.83V123.274Z" fill="#725325"/>
<path d="M276.83 115.937H269.485V123.274H276.83V115.937Z" fill="#725325"/>
<path d="M276.83 108.692H269.485V115.937H276.83V108.692Z" fill="#725325"/>
<path d="M276.83 101.447H269.485V108.692H276.83V101.447Z" fill="#725325"/>
<path d="M276.83 94.1038H269.485V101.447H276.83V94.1038Z" fill="#B28C42"/>
<path d="M276.83 86.8588H269.485V94.1038H276.83V86.8588Z" fill="#B28C42"/>
<path d="M276.83 79.6136H269.485V86.8587H276.83V79.6136Z" fill="#B28C42"/>
<path d="M269.486 217.846H262.227V225.098H269.486V217.846Z" fill="#B28C42"/>
<path d="M269.486 210.51H262.227V217.846H269.486V210.51Z" fill="#B28C42"/>
<path d="M269.486 203.265H262.227V210.51H269.486V203.265Z" fill="#B28C42"/>
<path d="M269.486 196.019H262.227V203.264H269.486V196.019Z" fill="#725325"/>
<path d="M269.486 188.683H262.227V196.019H269.486V188.683Z" fill="#725325"/>
<path d="M269.486 181.431H262.227V188.683H269.486V181.431Z" fill="#725325"/>
<path d="M269.486 174.186H262.227V181.43H269.486V174.186Z" fill="#725325"/>
<path d="M269.486 166.849H262.227V174.186H269.486V166.849Z" fill="#725325"/>
<path d="M269.486 159.604H262.227V166.849H269.486V159.604Z" fill="#725325"/>
<path d="M269.486 152.353H262.227V159.604H269.486V152.353Z" fill="#725325"/>
<path d="M269.486 145.016H262.227V152.352H269.486V145.016Z" fill="#725325"/>
<path d="M269.486 137.771H262.227V145.016H269.486V137.771Z" fill="#725325"/>
<path d="M269.486 130.526H262.227V137.771H269.486V130.526Z" fill="#725325"/>
<path d="M269.486 123.274H262.227V130.526H269.486V123.274Z" fill="#725325"/>
<path d="M269.486 115.937H262.227V123.274H269.486V115.937Z" fill="#725325"/>
<path d="M269.486 108.692H262.227V115.937H269.486V108.692Z" fill="#725325"/>
<path d="M269.486 101.447H262.227V108.692H269.486V101.447Z" fill="#725325"/>
<path d="M269.486 94.1038H262.227V101.447H269.486V94.1038Z" fill="#725325"/>
<path d="M269.486 86.8588H262.227V94.1038H269.486V86.8588Z" fill="#725325"/>
<path d="M269.486 79.6136H262.227V86.8587H269.486V79.6136Z" fill="#725325"/>
<path d="M269.486 72.277H262.227V79.6137H269.486V72.277Z" fill="#B28C42"/>
<path d="M269.486 65.0253H262.227V72.2769H269.486V65.0253Z" fill="#B28C42"/>
<path d="M269.486 57.7802H262.227V65.0253H269.486V57.7802Z" fill="#B28C42"/>
<path d="M262.226 225.098H254.974V232.342H262.226V225.098Z" fill="#B28C42"/>
<path d="M262.226 217.846H254.974V225.098H262.226V217.846Z" fill="#B28C42"/>
<path d="M262.226 210.51H254.974V217.846H262.226V210.51Z" fill="#725325"/>
<path d="M262.226 203.265H254.974V210.51H262.226V203.265Z" fill="#725325"/>
<path d="M262.226 196.019H254.974V203.264H262.226V196.019Z" fill="#725325"/>
<path d="M262.226 188.683H254.974V196.019H262.226V188.683Z" fill="#725325"/>
<path d="M262.226 181.431H254.974V188.683H262.226V181.431Z" fill="#725325"/>
<path d="M262.226 174.186H254.974V181.43H262.226V174.186Z" fill="#725325"/>
<path d="M262.226 166.849H254.974V174.186H262.226V166.849Z" fill="#725325"/>
<path d="M262.226 159.604H254.974V166.849H262.226V159.604Z" fill="#725325"/>
<path d="M262.226 152.353H254.974V159.604H262.226V152.353Z" fill="#725325"/>
<path d="M262.226 145.016H254.974V152.352H262.226V145.016Z" fill="#725325"/>
<path d="M262.226 137.771H254.974V145.016H262.226V137.771Z" fill="#725325"/>
<path d="M262.226 130.526H254.974V137.771H262.226V130.526Z" fill="#725325"/>
<path d="M262.226 123.274H254.974V130.526H262.226V123.274Z" fill="#725325"/>
<path d="M262.226 115.937H254.974V123.274H262.226V115.937Z" fill="#725325"/>
<path d="M262.226 108.692H254.974V115.937H262.226V108.692Z" fill="#725325"/>
<path d="M262.226 101.447H254.974V108.692H262.226V101.447Z" fill="#725325"/>
<path d="M262.226 94.1038H254.974V101.447H262.226V94.1038Z" fill="#725325"/>
<path d="M262.226 86.8588H254.974V94.1038H262.226V86.8588Z" fill="#725325"/>
<path d="M262.226 79.6136H254.974V86.8587H262.226V79.6136Z" fill="#725325"/>
<path d="M262.226 72.277H254.974V79.6137H262.226V72.277Z" fill="#725325"/>
<path d="M262.226 65.0253H254.974V72.2769H262.226V65.0253Z" fill="#725325"/>
<path d="M262.226 57.7802H254.974V65.0253H262.226V57.7802Z" fill="#B28C42"/>
<path d="M262.226 50.4435H254.974V57.7802H262.226V50.4435Z" fill="#B28C42"/>
<path d="M254.974 232.343H247.722V239.68H254.974V232.343Z" fill="#B28C42"/>
<path d="M254.974 225.098H247.722V232.342H254.974V225.098Z" fill="#B28C42"/>
<path d="M254.974 217.846H247.722V225.098H254.974V217.846Z" fill="#725325"/>
<path d="M254.974 210.51H247.722V217.846H254.974V210.51Z" fill="#725325"/>
<path d="M254.974 203.265H247.722V210.51H254.974V203.265Z" fill="#725325"/>
<path d="M254.974 196.019H247.722V203.264H254.974V196.019Z" fill="#725325"/>
<path d="M254.974 188.683H247.722V196.019H254.974V188.683Z" fill="#725325"/>
<path d="M254.974 181.431H247.722V188.683H254.974V181.431Z" fill="#725325"/>
<path d="M254.974 174.186H247.722V181.43H254.974V174.186Z" fill="#725325"/>
<path d="M254.974 166.849H247.722V174.186H254.974V166.849Z" fill="#725325"/>
<path d="M254.974 159.604H247.722V166.849H254.974V159.604Z" fill="#725325"/>
<path d="M254.974 152.353H247.722V159.604H254.974V152.353Z" fill="#725325"/>
<path d="M254.974 145.016H247.722V152.352H254.974V145.016Z" fill="#725325"/>
<path d="M254.974 137.771H247.722V145.016H254.974V137.771Z" fill="#725325"/>
<path d="M254.974 130.526H247.722V137.771H254.974V130.526Z" fill="#725325"/>
<path d="M254.974 123.274H247.722V130.526H254.974V123.274Z" fill="#725325"/>
<path d="M254.974 115.937H247.722V123.274H254.974V115.937Z" fill="#725325"/>
<path d="M254.974 108.692H247.722V115.937H254.974V108.692Z" fill="#725325"/>
<path d="M254.974 101.447H247.722V108.692H254.974V101.447Z" fill="#725325"/>
<path d="M254.974 94.1038H247.722V101.447H254.974V94.1038Z" fill="#725325"/>
<path d="M254.974 86.8588H247.722V94.1038H254.974V86.8588Z" fill="#725325"/>
<path d="M254.974 79.6136H247.722V86.8587H254.974V79.6136Z" fill="#725325"/>
<path d="M254.974 72.277H247.722V79.6137H254.974V72.277Z" fill="#725325"/>
<path d="M254.974 65.0253H247.722V72.2769H254.974V65.0253Z" fill="#725325"/>
<path d="M254.974 57.7802H247.722V65.0253H254.974V57.7802Z" fill="#725325"/>
<path d="M254.974 50.4435H247.722V57.7802H254.974V50.4435Z" fill="#B28C42"/>
<path d="M254.974 43.1984H247.722V50.4434H254.974V43.1984Z" fill="#B28C42"/>
<path d="M247.721 239.68H240.377V246.925H247.721V239.68Z" fill="#B28C42"/>
<path d="M247.721 232.343H240.377V239.68H247.721V232.343Z" fill="#B28C42"/>
<path d="M247.721 225.098H240.377V232.342H247.721V225.098Z" fill="#725325"/>
<path d="M247.721 217.846H240.377V225.098H247.721V217.846Z" fill="#725325"/>
<path d="M247.721 210.51H240.377V217.846H247.721V210.51Z" fill="#725325"/>
<path d="M247.721 203.265H240.377V210.51H247.721V203.265Z" fill="#725325"/>
<path d="M247.721 196.019H240.377V203.264H247.721V196.019Z" fill="#725325"/>
<path d="M247.721 188.683H240.377V196.019H247.721V188.683Z" fill="#725325"/>
<path d="M247.721 181.431H240.377V188.683H247.721V181.431Z" fill="#725325"/>
<path d="M247.721 174.186H240.377V181.43H247.721V174.186Z" fill="#725325"/>
<path d="M247.721 166.849H240.377V174.186H247.721V166.849Z" fill="#725325"/>
<path d="M247.721 159.604H240.377V166.849H247.721V159.604Z" fill="#725325"/>
<path d="M247.721 152.353H240.377V159.604H247.721V152.353Z" fill="#725325"/>
<path d="M247.721 145.016H240.377V152.352H247.721V145.016Z" fill="#725325"/>
<path d="M247.721 137.771H240.377V145.016H247.721V137.771Z" fill="#725325"/>
<path d="M247.721 130.526H240.377V137.771H247.721V130.526Z" fill="#725325"/>
<path d="M247.721 123.274H240.377V130.526H247.721V123.274Z" fill="#725325"/>
<path d="M247.721 115.937H240.377V123.274H247.721V115.937Z" fill="#725325"/>
<path d="M247.721 108.692H240.377V115.937H247.721V108.692Z" fill="#725325"/>
<path d="M247.721 101.447H240.377V108.692H247.721V101.447Z" fill="#725325"/>
<path d="M247.721 94.1038H240.377V101.447H247.721V94.1038Z" fill="#725325"/>
<path d="M247.721 86.8588H240.377V94.1038H247.721V86.8588Z" fill="#725325"/>
<path d="M247.721 79.6136H240.377V86.8587H247.721V79.6136Z" fill="#725325"/>
<path d="M247.721 72.277H240.377V79.6137H247.721V72.277Z" fill="#725325"/>
<path d="M247.721 65.0253H240.377V72.2769H247.721V65.0253Z" fill="#725325"/>
<path d="M247.721 57.7802H240.377V65.0253H247.721V57.7802Z" fill="#725325"/>
<path d="M247.721 50.4435H240.377V57.7802H247.721V50.4435Z" fill="#725325"/>
<path d="M247.721 43.1984H240.377V50.4434H247.721V43.1984Z" fill="#B28C42"/>
<path d="M247.721 35.9468H240.377V43.1984H247.721V35.9468Z" fill="#B28C42"/>
<path d="M240.377 246.925H233.125V254.176H240.377V246.925Z" fill="#B28C42"/>
<path d="M240.377 239.68H233.125V246.925H240.377V239.68Z" fill="#B28C42"/>
<path d="M240.377 232.343H233.125V239.68H240.377V232.343Z" fill="#725325"/>
<path d="M240.377 225.098H233.125V232.342H240.377V225.098Z" fill="#725325"/>
<path d="M240.377 217.846H233.125V225.098H240.377V217.846Z" fill="#725325"/>
<path d="M240.377 210.51H233.125V217.846H240.377V210.51Z" fill="#725325"/>
<path d="M240.377 203.265H233.125V210.51H240.377V203.265Z" fill="#725325"/>
<path d="M240.377 196.019H233.125V203.264H240.377V196.019Z" fill="#725325"/>
<path d="M240.377 188.683H233.125V196.019H240.377V188.683Z" fill="#725325"/>
<path d="M240.377 181.431H233.125V188.683H240.377V181.431Z" fill="#725325"/>
<path d="M240.377 174.186H233.125V181.43H240.377V174.186Z" fill="#725325"/>
<path d="M240.377 166.849H233.125V174.186H240.377V166.849Z" fill="#725325"/>
<path d="M240.377 159.604H233.125V166.849H240.377V159.604Z" fill="#725325"/>
<path d="M240.377 152.353H233.125V159.604H240.377V152.353Z" fill="#725325"/>
<path d="M240.377 145.016H233.125V152.352H240.377V145.016Z" fill="#725325"/>
<path d="M240.377 137.771H233.125V145.016H240.377V137.771Z" fill="#725325"/>
<path d="M240.377 130.526H233.125V137.771H240.377V130.526Z" fill="#725325"/>
<path d="M240.377 123.274H233.125V130.526H240.377V123.274Z" fill="#725325"/>
<path d="M240.377 115.937H233.125V123.274H240.377V115.937Z" fill="#725325"/>
<path d="M240.377 108.692H233.125V115.937H240.377V108.692Z" fill="#725325"/>
<path d="M240.377 101.447H233.125V108.692H240.377V101.447Z" fill="#725325"/>
<path d="M240.377 94.1038H233.125V101.447H240.377V94.1038Z" fill="#725325"/>
<path d="M240.377 86.8588H233.125V94.1038H240.377V86.8588Z" fill="#725325"/>
<path d="M240.377 79.6136H233.125V86.8587H240.377V79.6136Z" fill="#725325"/>
<path d="M240.377 72.277H233.125V79.6137H240.377V72.277Z" fill="#725325"/>
<path d="M240.377 65.0253H233.125V72.2769H240.377V65.0253Z" fill="#725325"/>
<path d="M240.377 57.7802H233.125V65.0253H240.377V57.7802Z" fill="#725325"/>
<path d="M240.377 50.4435H233.125V57.7802H240.377V50.4435Z" fill="#725325"/>
<path d="M240.377 43.1984H233.125V50.4434H240.377V43.1984Z" fill="#725325"/>
<path d="M240.377 35.9468H233.125V43.1984H240.377V35.9468Z" fill="#B28C42"/>
<path d="M240.377 28.61H233.125V35.9467H240.377V28.61Z" fill="#B28C42"/>
<path d="M233.124 254.177H225.865V261.422H233.124V254.177Z" fill="#B28C42"/>
<path d="M233.124 246.925H225.865V254.176H233.124V246.925Z" fill="#B28C42"/>
<path d="M233.124 239.68H225.865V246.925H233.124V239.68Z" fill="#725325"/>
<path d="M233.124 232.343H225.865V239.68H233.124V232.343Z" fill="#725325"/>
<path d="M233.124 225.098H225.865V232.342H233.124V225.098Z" fill="#725325"/>
<path d="M233.124 217.846H225.865V225.098H233.124V217.846Z" fill="#725325"/>
<path d="M233.124 210.51H225.865V217.846H233.124V210.51Z" fill="#725325"/>
<path d="M233.124 203.265H225.865V210.51H233.124V203.265Z" fill="#725325"/>
<path d="M233.124 196.019H225.865V203.264H233.124V196.019Z" fill="#725325"/>
<path d="M233.124 188.683H225.865V196.019H233.124V188.683Z" fill="#725325"/>
<path d="M233.124 181.431H225.865V188.683H233.124V181.431Z" fill="#725325"/>
<path d="M233.124 174.186H225.865V181.43H233.124V174.186Z" fill="#725325"/>
<path d="M233.124 166.849H225.865V174.186H233.124V166.849Z" fill="#725325"/>
<path d="M233.124 159.604H225.865V166.849H233.124V159.604Z" fill="#725325"/>
<path d="M233.124 152.353H225.865V159.604H233.124V152.353Z" fill="#725325"/>
<path d="M233.124 145.016H225.865V152.352H233.124V145.016Z" fill="#725325"/>
<path d="M233.124 137.771H225.865V145.016H233.124V137.771Z" fill="#725325"/>
<path d="M233.124 130.526H225.865V137.771H233.124V130.526Z" fill="#725325"/>
<path d="M233.124 123.274H225.865V130.526H233.124V123.274Z" fill="#725325"/>
<path d="M233.124 115.937H225.865V123.274H233.124V115.937Z" fill="#725325"/>
<path d="M233.124 108.692H225.865V115.937H233.124V108.692Z" fill="#725325"/>
<path d="M233.124 101.447H225.865V108.692H233.124V101.447Z" fill="#725325"/>
<path d="M233.124 94.1038H225.865V101.447H233.124V94.1038Z" fill="#725325"/>
<path d="M233.124 86.8588H225.865V94.1038H233.124V86.8588Z" fill="#725325"/>
<path d="M233.124 79.6136H225.865V86.8587H233.124V79.6136Z" fill="#725325"/>
<path d="M233.124 72.277H225.865V79.6137H233.124V72.277Z" fill="#725325"/>
<path d="M233.124 65.0253H225.865V72.2769H233.124V65.0253Z" fill="#725325"/>
<path d="M233.124 57.7802H225.865V65.0253H233.124V57.7802Z" fill="#725325"/>
<path d="M233.124 50.4435H225.865V57.7802H233.124V50.4435Z" fill="#725325"/>
<path d="M233.124 43.1984H225.865V50.4434H233.124V43.1984Z" fill="#725325"/>
<path d="M233.124 35.9468H225.865V43.1984H233.124V35.9468Z" fill="#725325"/>
<path d="M233.124 28.61H225.865V35.9467H233.124V28.61Z" fill="#B28C42"/>
<path d="M233.124 21.365H225.865V28.6101H233.124V21.365Z" fill="#B28C42"/>
<path d="M225.866 254.177H218.521V261.422H225.866V254.177Z" fill="#B28C42"/>
<path d="M225.866 246.925H218.521V254.176H225.866V246.925Z" fill="#725325"/>
<path d="M225.866 239.68H218.521V246.925H225.866V239.68Z" fill="#725325"/>
<path d="M225.866 232.343H218.521V239.68H225.866V232.343Z" fill="#725325"/>
<path d="M225.866 225.098H218.521V232.342H225.866V225.098Z" fill="#725325"/>
<path d="M225.866 217.846H218.521V225.098H225.866V217.846Z" fill="#036EB8"/>
<path d="M225.866 210.51H218.521V217.846H225.866V210.51Z" fill="#036EB8"/>
<path d="M225.866 203.265H218.521V210.51H225.866V203.265Z" fill="#036EB8"/>
<path d="M225.866 196.019H218.521V203.264H225.866V196.019Z" fill="#725325"/>
<path d="M225.866 188.683H218.521V196.019H225.866V188.683Z" fill="#725325"/>
<path d="M225.866 181.431H218.521V188.683H225.866V181.431Z" fill="#725325"/>
<path d="M225.866 174.186H218.521V181.43H225.866V174.186Z" fill="#725325"/>
<path d="M225.866 166.849H218.521V174.186H225.866V166.849Z" fill="#725325"/>
<path d="M225.866 159.604H218.521V166.849H225.866V159.604Z" fill="#725325"/>
<path d="M225.866 152.353H218.521V159.604H225.866V152.353Z" fill="#725325"/>
<path d="M225.866 145.016H218.521V152.352H225.866V145.016Z" fill="#725325"/>
<path d="M225.866 137.771H218.521V145.016H225.866V137.771Z" fill="#725325"/>
<path d="M225.866 130.526H218.521V137.771H225.866V130.526Z" fill="#725325"/>
<path d="M225.866 123.274H218.521V130.526H225.866V123.274Z" fill="#725325"/>
<path d="M225.866 115.937H218.521V123.274H225.866V115.937Z" fill="#725325"/>
<path d="M225.866 108.692H218.521V115.937H225.866V108.692Z" fill="#725325"/>
<path d="M225.866 101.447H218.521V108.692H225.866V101.447Z" fill="#725325"/>
<path d="M225.866 94.1038H218.521V101.447H225.866V94.1038Z" fill="#725325"/>
<path d="M225.866 86.8588H218.521V94.1038H225.866V86.8588Z" fill="#725325"/>
<path d="M225.866 79.6136H218.521V86.8587H225.866V79.6136Z" fill="#725325"/>
<path d="M225.866 72.277H218.521V79.6137H225.866V72.277Z" fill="#725325"/>
<path d="M225.866 65.0253H218.521V72.2769H225.866V65.0253Z" fill="#725325"/>
<path d="M225.866 57.7802H218.521V65.0253H225.866V57.7802Z" fill="#725325"/>
<path d="M225.866 50.4435H218.521V57.7802H225.866V50.4435Z" fill="#725325"/>
<path d="M225.866 43.1984H218.521V50.4434H225.866V43.1984Z" fill="#725325"/>
<path d="M225.866 35.9468H218.521V43.1984H225.866V35.9468Z" fill="#725325"/>
<path d="M225.866 28.61H218.521V35.9467H225.866V28.61Z" fill="#725325"/>
<path d="M225.866 21.365H218.521V28.6101H225.866V21.365Z" fill="#B28C42"/>
<path d="M218.521 261.422H211.269V268.758H218.521V261.422Z" fill="#B28C42"/>
<path d="M218.521 254.177H211.269V261.422H218.521V254.177Z" fill="#725325"/>
<path d="M218.521 246.925H211.269V254.176H218.521V246.925Z" fill="#725325"/>
<path d="M218.521 239.68H211.269V246.925H218.521V239.68Z" fill="#725325"/>
<path d="M218.521 232.343H211.269V239.68H218.521V232.343Z" fill="#725325"/>
<path d="M218.521 225.098H211.269V232.342H218.521V225.098Z" fill="#725325"/>
<path d="M218.521 217.846H211.269V225.098H218.521V217.846Z" fill="#036EB8"/>
<path d="M218.521 210.51H211.269V217.846H218.521V210.51Z" fill="#036EB8"/>
<path d="M218.521 203.265H211.269V210.51H218.521V203.265Z" fill="#036EB8"/>
<path d="M218.521 196.019H211.269V203.264H218.521V196.019Z" fill="#036EB8"/>
<path d="M218.521 188.683H211.269V196.019H218.521V188.683Z" fill="#036EB8"/>
<path d="M218.521 181.431H211.269V188.683H218.521V181.431Z" fill="#725325"/>
<path d="M218.521 174.186H211.269V181.43H218.521V174.186Z" fill="#725325"/>
<path d="M218.521 166.849H211.269V174.186H218.521V166.849Z" fill="#725325"/>
<path d="M218.521 159.604H211.269V166.849H218.521V159.604Z" fill="#725325"/>
<path d="M218.521 152.353H211.269V159.604H218.521V152.353Z" fill="#725325"/>
<path d="M218.521 145.016H211.269V152.352H218.521V145.016Z" fill="#725325"/>
<path d="M218.521 137.771H211.269V145.016H218.521V137.771Z" fill="#725325"/>
<path d="M218.521 130.526H211.269V137.771H218.521V130.526Z" fill="#725325"/>
<path d="M218.521 123.274H211.269V130.526H218.521V123.274Z" fill="#725325"/>
<path d="M218.521 115.937H211.269V123.274H218.521V115.937Z" fill="#725325"/>
<path d="M218.521 108.692H211.269V115.937H218.521V108.692Z" fill="#725325"/>
<path d="M218.521 101.447H211.269V108.692H218.521V101.447Z" fill="#725325"/>
<path d="M218.521 94.1038H211.269V101.447H218.521V94.1038Z" fill="#725325"/>
<path d="M218.521 86.8588H211.269V94.1038H218.521V86.8588Z" fill="#725325"/>
<path d="M218.521 79.6136H211.269V86.8587H218.521V79.6136Z" fill="#725325"/>
<path d="M218.521 72.277H211.269V79.6137H218.521V72.277Z" fill="#725325"/>
<path d="M218.521 65.0253H211.269V72.2769H218.521V65.0253Z" fill="#725325"/>
<path d="M218.521 57.7802H211.269V65.0253H218.521V57.7802Z" fill="#725325"/>
<path d="M218.521 50.4435H211.269V57.7802H218.521V50.4435Z" fill="#725325"/>
<path d="M218.521 43.1984H211.269V50.4434H218.521V43.1984Z" fill="#725325"/>
<path d="M218.521 35.9468H211.269V43.1984H218.521V35.9468Z" fill="#725325"/>
<path d="M218.521 28.61H211.269V35.9467H218.521V28.61Z" fill="#725325"/>
<path d="M218.521 21.365H211.269V28.6101H218.521V21.365Z" fill="#B28C42"/>
<path d="M218.521 14.1199H211.269V21.365H218.521V14.1199Z" fill="#B28C42"/>
<path d="M211.268 268.758H204.016V276.003H211.268V268.758Z" fill="#B28C42"/>
<path d="M211.268 261.422H204.016V268.758H211.268V261.422Z" fill="#B28C42"/>
<path d="M211.268 254.177H204.016V261.422H211.268V254.177Z" fill="#725325"/>
<path d="M211.268 246.925H204.016V254.176H211.268V246.925Z" fill="#725325"/>
<path d="M211.268 239.68H204.016V246.925H211.268V239.68Z" fill="#725325"/>
<path d="M211.268 232.343H204.016V239.68H211.268V232.343Z" fill="#725325"/>
<path d="M211.268 225.098H204.016V232.342H211.268V225.098Z" fill="#725325"/>
<path d="M211.268 217.846H204.016V225.098H211.268V217.846Z" fill="#036EB8"/>
<path d="M211.268 210.51H204.016V217.846H211.268V210.51Z" fill="#036EB8"/>
<path d="M211.268 203.265H204.016V210.51H211.268V203.265Z" fill="#036EB8"/>
<path d="M211.268 196.019H204.016V203.264H211.268V196.019Z" fill="#C9C7E4"/>
<path d="M211.268 188.683H204.016V196.019H211.268V188.683Z" fill="#036EB8"/>
<path d="M211.268 181.431H204.016V188.683H211.268V181.431Z" fill="#C9C7E4"/>
<path d="M211.268 174.186H204.016V181.43H211.268V174.186Z" fill="#036EB8"/>
<path d="M211.268 166.849H204.016V174.186H211.268V166.849Z" fill="#725325"/>
<path d="M211.268 159.604H204.016V166.849H211.268V159.604Z" fill="#725325"/>
<path d="M211.268 152.353H204.016V159.604H211.268V152.353Z" fill="#725325"/>
<path d="M211.268 145.016H204.016V152.352H211.268V145.016Z" fill="#725325"/>
<path d="M211.268 137.771H204.016V145.016H211.268V137.771Z" fill="#725325"/>
<path d="M211.268 130.526H204.016V137.771H211.268V130.526Z" fill="#725325"/>
<path d="M211.268 123.274H204.016V130.526H211.268V123.274Z" fill="#725325"/>
<path d="M211.268 115.937H204.016V123.274H211.268V115.937Z" fill="#725325"/>
<path d="M211.268 108.692H204.016V115.937H211.268V108.692Z" fill="#725325"/>
<path d="M211.268 101.447H204.016V108.692H211.268V101.447Z" fill="#725325"/>
<path d="M211.268 94.1038H204.016V101.447H211.268V94.1038Z" fill="#725325"/>
<path d="M211.268 86.8588H204.016V94.1038H211.268V86.8588Z" fill="#725325"/>
<path d="M211.268 79.6136H204.016V86.8587H211.268V79.6136Z" fill="#725325"/>
<path d="M211.268 72.277H204.016V79.6137H211.268V72.277Z" fill="#725325"/>
<path d="M211.268 65.0253H204.016V72.2769H211.268V65.0253Z" fill="#725325"/>
<path d="M211.268 57.7802H204.016V65.0253H211.268V57.7802Z" fill="#725325"/>
<path d="M211.268 50.4435H204.016V57.7802H211.268V50.4435Z" fill="#725325"/>
<path d="M211.268 43.1984H204.016V50.4434H211.268V43.1984Z" fill="#725325"/>
<path d="M211.268 35.9468H204.016V43.1984H211.268V35.9468Z" fill="#725325"/>
<path d="M211.268 28.61H204.016V35.9467H211.268V28.61Z" fill="#725325"/>
<path d="M211.268 21.365H204.016V28.6101H211.268V21.365Z" fill="#725325"/>
<path d="M211.268 14.1199H204.016V21.365H211.268V14.1199Z" fill="#B28C42"/>
<path d="M204.016 268.758H196.665V276.003H204.016V268.758Z" fill="#B28C42"/>
<path d="M204.016 261.422H196.665V268.758H204.016V261.422Z" fill="#725325"/>
<path d="M204.016 254.177H196.665V261.422H204.016V254.177Z" fill="#725325"/>
<path d="M204.016 246.925H196.665V254.176H204.016V246.925Z" fill="#725325"/>
<path d="M204.016 239.68H196.665V246.925H204.016V239.68Z" fill="#725325"/>
<path d="M204.016 232.343H196.665V239.68H204.016V232.343Z" fill="#725325"/>
<path d="M204.016 225.098H196.665V232.342H204.016V225.098Z" fill="#725325"/>
<path d="M204.016 217.846H196.665V225.098H204.016V217.846Z" fill="#036EB8"/>
<path d="M204.016 210.51H196.665V217.846H204.016V210.51Z" fill="#036EB8"/>
<path d="M204.016 203.265H196.665V210.51H204.016V203.265Z" fill="#036EB8"/>
<path d="M204.016 196.019H196.665V203.264H204.016V196.019Z" fill="#C9C7E4"/>
<path d="M204.016 188.683H196.665V196.019H204.016V188.683Z" fill="#036EB8"/>
<path d="M204.016 181.431H196.665V188.683H204.016V181.431Z" fill="#C9C7E4"/>
<path d="M204.016 174.186H196.665V181.43H204.016V174.186Z" fill="#036EB8"/>
<path d="M204.016 166.849H196.665V174.186H204.016V166.849Z" fill="#036EB8"/>
<path d="M204.016 159.604H196.665V166.849H204.016V159.604Z" fill="#036EB8"/>
<path d="M204.016 152.353H196.665V159.604H204.016V152.353Z" fill="#725325"/>
<path d="M204.016 145.016H196.665V152.352H204.016V145.016Z" fill="#725325"/>
<path d="M204.016 137.771H196.665V145.016H204.016V137.771Z" fill="#725325"/>
<path d="M204.016 130.526H196.665V137.771H204.016V130.526Z" fill="#725325"/>
<path d="M204.016 123.274H196.665V130.526H204.016V123.274Z" fill="#725325"/>
<path d="M204.016 115.937H196.665V123.274H204.016V115.937Z" fill="#725325"/>
<path d="M204.016 108.692H196.665V115.937H204.016V108.692Z" fill="#725325"/>
<path d="M204.016 101.447H196.665V108.692H204.016V101.447Z" fill="#725325"/>
<path d="M204.016 94.1038H196.665V101.447H204.016V94.1038Z" fill="#725325"/>
<path d="M204.016 86.8588H196.665V94.1038H204.016V86.8588Z" fill="#725325"/>
<path d="M204.016 79.6136H196.665V86.8587H204.016V79.6136Z" fill="#725325"/>
<path d="M204.016 72.277H196.665V79.6137H204.016V72.277Z" fill="#725325"/>
<path d="M204.016 65.0253H196.665V72.2769H204.016V65.0253Z" fill="#725325"/>
<path d="M204.016 57.7802H196.665V65.0253H204.016V57.7802Z" fill="#725325"/>
<path d="M204.016 50.4435H196.665V57.7802H204.016V50.4435Z" fill="#725325"/>
<path d="M204.016 43.1984H196.665V50.4434H204.016V43.1984Z" fill="#725325"/>
<path d="M204.016 35.9468H196.665V43.1984H204.016V35.9468Z" fill="#725325"/>
<path d="M204.016 28.61H196.665V35.9467H204.016V28.61Z" fill="#725325"/>
<path d="M204.016 21.365H196.665V28.6101H204.016V21.365Z" fill="#725325"/>
<path d="M204.016 14.1199H196.665V21.365H204.016V14.1199Z" fill="#B28C42"/>
<path d="M204.016 6.86816H196.665V14.1198H204.016V6.86816Z" fill="#B28C42"/>
<path d="M196.666 268.758H189.413V276.003H196.666V268.758Z" fill="#B28C42"/>
<path d="M196.666 261.422H189.413V268.758H196.666V261.422Z" fill="#725325"/>
<path d="M196.666 254.177H189.413V261.422H196.666V254.177Z" fill="#725325"/>
<path d="M196.666 246.925H189.413V254.176H196.666V246.925Z" fill="#725325"/>
<path d="M196.666 239.68H189.413V246.925H196.666V239.68Z" fill="#725325"/>
<path d="M196.666 232.343H189.413V239.68H196.666V232.343Z" fill="#725325"/>
<path d="M196.666 225.098H189.413V232.342H196.666V225.098Z" fill="#725325"/>
<path d="M196.666 217.846H189.413V225.098H196.666V217.846Z" fill="#036EB8"/>
<path d="M196.666 210.51H189.413V217.846H196.666V210.51Z" fill="#036EB8"/>
<path d="M196.666 203.265H189.413V210.51H196.666V203.265Z" fill="#036EB8"/>
<path d="M196.666 196.019H189.413V203.264H196.666V196.019Z" fill="#C9C7E4"/>
<path d="M196.666 188.683H189.413V196.019H196.666V188.683Z" fill="#036EB8"/>
<path d="M196.666 181.431H189.413V188.683H196.666V181.431Z" fill="#C9C7E4"/>
<path d="M196.666 174.186H189.413V181.43H196.666V174.186Z" fill="#036EB8"/>
<path d="M196.666 166.849H189.413V174.186H196.666V166.849Z" fill="#036EB8"/>
<path d="M196.666 159.604H189.413V166.849H196.666V159.604Z" fill="#036EB8"/>
<path d="M196.666 152.353H189.413V159.604H196.666V152.353Z" fill="#C9C7E4"/>
<path d="M196.666 145.016H189.413V152.352H196.666V145.016Z" fill="#725325"/>
<path d="M196.666 137.771H189.413V145.016H196.666V137.771Z" fill="#725325"/>
<path d="M196.666 130.526H189.413V137.771H196.666V130.526Z" fill="#725325"/>
<path d="M196.666 123.274H189.413V130.526H196.666V123.274Z" fill="#725325"/>
<path d="M196.666 115.937H189.413V123.274H196.666V115.937Z" fill="#725325"/>
<path d="M196.666 108.692H189.413V115.937H196.666V108.692Z" fill="#725325"/>
<path d="M196.666 101.447H189.413V108.692H196.666V101.447Z" fill="#725325"/>
<path d="M196.666 94.1038H189.413V101.447H196.666V94.1038Z" fill="#725325"/>
<path d="M196.666 86.8588H189.413V94.1038H196.666V86.8588Z" fill="#725325"/>
<path d="M196.666 79.6136H189.413V86.8587H196.666V79.6136Z" fill="#725325"/>
<path d="M196.666 72.277H189.413V79.6137H196.666V72.277Z" fill="#725325"/>
<path d="M196.666 65.0253H189.413V72.2769H196.666V65.0253Z" fill="#725325"/>
<path d="M196.666 57.7802H189.413V65.0253H196.666V57.7802Z" fill="#725325"/>
<path d="M196.666 50.4435H189.413V57.7802H196.666V50.4435Z" fill="#725325"/>
<path d="M196.666 43.1984H189.413V50.4434H196.666V43.1984Z" fill="#725325"/>
<path d="M196.666 35.9468H189.413V43.1984H196.666V35.9468Z" fill="#725325"/>
<path d="M196.666 28.61H189.413V35.9467H196.666V28.61Z" fill="#725325"/>
<path d="M196.666 21.365H189.413V28.6101H196.666V21.365Z" fill="#725325"/>
<path d="M196.666 14.1199H189.413V21.365H196.666V14.1199Z" fill="#725325"/>
<path d="M196.666 6.86816H189.413V14.1198H196.666V6.86816Z" fill="#B28C42"/>
<path d="M189.412 276.003H182.16V283.255H189.412V276.003Z" fill="#B28C42"/>
<path d="M189.412 268.758H182.16V276.003H189.412V268.758Z" fill="#B28C42"/>
<path d="M189.412 261.422H182.16V268.758H189.412V261.422Z" fill="#725325"/>
<path d="M189.412 254.177H182.16V261.422H189.412V254.177Z" fill="#725325"/>
<path d="M189.412 246.925H182.16V254.176H189.412V246.925Z" fill="#725325"/>
<path d="M189.412 239.68H182.16V246.925H189.412V239.68Z" fill="#725325"/>
<path d="M189.412 232.343H182.16V239.68H189.412V232.343Z" fill="#725325"/>
<path d="M189.412 225.098H182.16V232.342H189.412V225.098Z" fill="#725325"/>
<path d="M189.412 217.846H182.16V225.098H189.412V217.846Z" fill="#036EB8"/>
<path d="M189.412 210.51H182.16V217.846H189.412V210.51Z" fill="#036EB8"/>
<path d="M189.412 203.265H182.16V210.51H189.412V203.265Z" fill="#036EB8"/>
<path d="M189.412 196.019H182.16V203.264H189.412V196.019Z" fill="#C9C7E4"/>
<path d="M189.412 188.683H182.16V196.019H189.412V188.683Z" fill="#036EB8"/>
<path d="M189.412 181.431H182.16V188.683H189.412V181.431Z" fill="#C9C7E4"/>
<path d="M189.412 174.186H182.16V181.43H189.412V174.186Z" fill="#036EB8"/>
<path d="M189.412 166.849H182.16V174.186H189.412V166.849Z" fill="#036EB8"/>
<path d="M189.412 159.604H182.16V166.849H189.412V159.604Z" fill="#036EB8"/>
<path d="M189.412 152.353H182.16V159.604H189.412V152.353Z" fill="#C9C7E4"/>
<path d="M189.412 145.016H182.16V152.352H189.412V145.016Z" fill="#036EB8"/>
<path d="M189.412 137.771H182.16V145.016H189.412V137.771Z" fill="#036EB8"/>
<path d="M189.412 130.526H182.16V137.771H189.412V130.526Z" fill="#725325"/>
<path d="M189.412 123.274H182.16V130.526H189.412V123.274Z" fill="#725325"/>
<path d="M189.412 115.937H182.16V123.274H189.412V115.937Z" fill="#725325"/>
<path d="M189.412 108.692H182.16V115.937H189.412V108.692Z" fill="#725325"/>
<path d="M189.412 101.447H182.16V108.692H189.412V101.447Z" fill="#725325"/>
<path d="M189.412 94.1038H182.16V101.447H189.412V94.1038Z" fill="#725325"/>
<path d="M189.412 86.8588H182.16V94.1038H189.412V86.8588Z" fill="#725325"/>
<path d="M189.412 79.6136H182.16V86.8587H189.412V79.6136Z" fill="#725325"/>
<path d="M189.412 72.277H182.16V79.6137H189.412V72.277Z" fill="#725325"/>
<path d="M189.412 65.0253H182.16V72.2769H189.412V65.0253Z" fill="#725325"/>
<path d="M189.412 57.7802H182.16V65.0253H189.412V57.7802Z" fill="#725325"/>
<path d="M189.412 50.4435H182.16V57.7802H189.412V50.4435Z" fill="#725325"/>
<path d="M189.412 43.1984H182.16V50.4434H189.412V43.1984Z" fill="#725325"/>
<path d="M189.412 35.9468H182.16V43.1984H189.412V35.9468Z" fill="#725325"/>
<path d="M189.412 28.61H182.16V35.9467H189.412V28.61Z" fill="#725325"/>
<path d="M189.412 21.365H182.16V28.6101H189.412V21.365Z" fill="#725325"/>
<path d="M189.412 14.1199H182.16V21.365H189.412V14.1199Z" fill="#725325"/>
<path d="M189.412 6.86816H182.16V14.1198H189.412V6.86816Z" fill="#B28C42"/>
<path d="M182.161 276.003H174.816V283.255H182.161V276.003Z" fill="#B28C42"/>
<path d="M182.161 268.758H174.816V276.003H182.161V268.758Z" fill="#725325"/>
<path d="M182.161 261.422H174.816V268.758H182.161V261.422Z" fill="#725325"/>
<path d="M182.161 254.177H174.816V261.422H182.161V254.177Z" fill="#725325"/>
<path d="M182.161 246.925H174.816V254.176H182.161V246.925Z" fill="#725325"/>
<path d="M182.161 239.68H174.816V246.925H182.161V239.68Z" fill="#725325"/>
<path d="M182.161 232.343H174.816V239.68H182.161V232.343Z" fill="#725325"/>
<path d="M182.161 225.098H174.816V232.342H182.161V225.098Z" fill="#725325"/>
<path d="M182.161 217.846H174.816V225.098H182.161V217.846Z" fill="#036EB8"/>
<path d="M182.161 210.51H174.816V217.846H182.161V210.51Z" fill="#036EB8"/>
<path d="M182.161 203.265H174.816V210.51H182.161V203.265Z" fill="#036EB8"/>
<path d="M182.161 196.019H174.816V203.264H182.161V196.019Z" fill="#C9C7E4"/>
<path d="M182.161 188.683H174.816V196.019H182.161V188.683Z" fill="#036EB8"/>
<path d="M182.161 181.431H174.816V188.683H182.161V181.431Z" fill="#C9C7E4"/>
<path d="M182.161 174.186H174.816V181.43H182.161V174.186Z" fill="#C9C7E4"/>
<path d="M182.161 166.849H174.816V174.186H182.161V166.849Z" fill="#036EB8"/>
<path d="M182.161 159.604H174.816V166.849H182.161V159.604Z" fill="#036EB8"/>
<path d="M182.161 152.353H174.816V159.604H182.161V152.353Z" fill="#C9C7E4"/>
<path d="M182.161 145.016H174.816V152.352H182.161V145.016Z" fill="#036EB8"/>
<path d="M182.161 137.771H174.816V145.016H182.161V137.771Z" fill="#036EB8"/>
<path d="M182.161 130.526H174.816V137.771H182.161V130.526Z" fill="#036EB8"/>
<path d="M182.161 123.274H174.816V130.526H182.161V123.274Z" fill="black"/>
<path d="M182.161 115.937H174.816V123.274H182.161V115.937Z" fill="black"/>
<path d="M182.161 108.692H174.816V115.937H182.161V108.692Z" fill="#725325"/>
<path d="M182.161 101.447H174.816V108.692H182.161V101.447Z" fill="#725325"/>
<path d="M182.161 94.1038H174.816V101.447H182.161V94.1038Z" fill="#725325"/>
<path d="M182.161 86.8588H174.816V94.1038H182.161V86.8588Z" fill="#725325"/>
<path d="M182.161 79.6136H174.816V86.8587H182.161V79.6136Z" fill="#725325"/>
<path d="M182.161 72.277H174.816V79.6137H182.161V72.277Z" fill="#725325"/>
<path d="M182.161 65.0253H174.816V72.2769H182.161V65.0253Z" fill="#725325"/>
<path d="M182.161 57.7802H174.816V65.0253H182.161V57.7802Z" fill="#725325"/>
<path d="M182.161 50.4435H174.816V57.7802H182.161V50.4435Z" fill="#725325"/>
<path d="M182.161 43.1984H174.816V50.4434H182.161V43.1984Z" fill="#725325"/>
<path d="M182.161 35.9468H174.816V43.1984H182.161V35.9468Z" fill="#725325"/>
<path d="M182.161 28.61H174.816V35.9467H182.161V28.61Z" fill="#725325"/>
<path d="M182.161 21.365H174.816V28.6101H182.161V21.365Z" fill="#725325"/>
<path d="M182.161 14.1199H174.816V21.365H182.161V14.1199Z" fill="#725325"/>
<path d="M182.161 6.86816H174.816V14.1198H182.161V6.86816Z" fill="#B28C42"/>
<path d="M182.161 -0.468506H174.816V6.8682H182.161V-0.468506Z" fill="#B28C42"/>
<path d="M174.816 276.003H167.557V283.255H174.816V276.003Z" fill="#B28C42"/>
<path d="M174.816 268.758H167.557V276.003H174.816V268.758Z" fill="#725325"/>
<path d="M174.816 261.422H167.557V268.758H174.816V261.422Z" fill="#725325"/>
<path d="M174.816 254.177H167.557V261.422H174.816V254.177Z" fill="#725325"/>
<path d="M174.816 246.925H167.557V254.176H174.816V246.925Z" fill="#725325"/>
<path d="M174.816 239.68H167.557V246.925H174.816V239.68Z" fill="#725325"/>
<path d="M174.816 232.343H167.557V239.68H174.816V232.343Z" fill="#725325"/>
<path d="M174.816 225.098H167.557V232.342H174.816V225.098Z" fill="#725325"/>
<path d="M174.816 217.846H167.557V225.098H174.816V217.846Z" fill="#036EB8"/>
<path d="M174.816 210.51H167.557V217.846H174.816V210.51Z" fill="#036EB8"/>
<path d="M174.816 203.265H167.557V210.51H174.816V203.265Z" fill="#036EB8"/>
<path d="M174.816 196.019H167.557V203.264H174.816V196.019Z" fill="#C9C7E4"/>
<path d="M174.816 188.683H167.557V196.019H174.816V188.683Z" fill="#036EB8"/>
<path d="M174.816 181.431H167.557V188.683H174.816V181.431Z" fill="#036EB8"/>
<path d="M174.816 174.186H167.557V181.43H174.816V174.186Z" fill="#C9C7E4"/>
<path d="M174.816 166.849H167.557V174.186H174.816V166.849Z" fill="#036EB8"/>
<path d="M174.816 159.604H167.557V166.849H174.816V159.604Z" fill="#036EB8"/>
<path d="M174.816 152.353H167.557V159.604H174.816V152.353Z" fill="#C9C7E4"/>
<path d="M174.816 145.016H167.557V152.352H174.816V145.016Z" fill="#036EB8"/>
<path d="M174.816 137.771H167.557V145.016H174.816V137.771Z" fill="#036EB8"/>
<path d="M174.816 130.526H167.557V137.771H174.816V130.526Z" fill="#036EB8"/>
<path d="M174.816 123.274H167.557V130.526H174.816V123.274Z" fill="#036EB8"/>
<path d="M174.816 115.937H167.557V123.274H174.816V115.937Z" fill="black"/>
<path d="M174.816 108.692H167.557V115.937H174.816V108.692Z" fill="black"/>
<path d="M174.816 101.447H167.557V108.692H174.816V101.447Z" fill="#725325"/>
<path d="M174.816 94.1038H167.557V101.447H174.816V94.1038Z" fill="#725325"/>
<path d="M174.816 86.8588H167.557V94.1038H174.816V86.8588Z" fill="#725325"/>
<path d="M174.816 79.6136H167.557V86.8587H174.816V79.6136Z" fill="#725325"/>
<path d="M174.816 72.277H167.557V79.6137H174.816V72.277Z" fill="#725325"/>
<path d="M174.816 65.0253H167.557V72.2769H174.816V65.0253Z" fill="#725325"/>
<path d="M174.816 57.7802H167.557V65.0253H174.816V57.7802Z" fill="#725325"/>
<path d="M174.816 50.4435H167.557V57.7802H174.816V50.4435Z" fill="#725325"/>
<path d="M174.816 43.1984H167.557V50.4434H174.816V43.1984Z" fill="#725325"/>
<path d="M174.816 35.9468H167.557V43.1984H174.816V35.9468Z" fill="#725325"/>
<path d="M174.816 28.61H167.557V35.9467H174.816V28.61Z" fill="#725325"/>
<path d="M174.816 21.365H167.557V28.6101H174.816V21.365Z" fill="#725325"/>
<path d="M174.816 14.1199H167.557V21.365H174.816V14.1199Z" fill="#725325"/>
<path d="M174.816 6.86816H167.557V14.1198H174.816V6.86816Z" fill="#725325"/>
<path d="M174.816 -0.468506H167.557V6.8682H174.816V-0.468506Z" fill="#B28C42"/>
<path d="M167.556 276.003H160.304V283.255H167.556V276.003Z" fill="#B28C42"/>
<path d="M167.556 268.758H160.304V276.003H167.556V268.758Z" fill="#725325"/>
<path d="M167.556 261.422H160.304V268.758H167.556V261.422Z" fill="#725325"/>
<path d="M167.556 254.177H160.304V261.422H167.556V254.177Z" fill="#725325"/>
<path d="M167.556 246.925H160.304V254.176H167.556V246.925Z" fill="#725325"/>
<path d="M167.556 239.68H160.304V246.925H167.556V239.68Z" fill="#725325"/>
<path d="M167.556 232.343H160.304V239.68H167.556V232.343Z" fill="#725325"/>
<path d="M167.556 225.098H160.304V232.342H167.556V225.098Z" fill="#725325"/>
<path d="M167.556 217.846H160.304V225.098H167.556V217.846Z" fill="#036EB8"/>
<path d="M167.556 210.51H160.304V217.846H167.556V210.51Z" fill="#036EB8"/>
<path d="M167.556 203.265H160.304V210.51H167.556V203.265Z" fill="#036EB8"/>
<path d="M167.556 196.019H160.304V203.264H167.556V196.019Z" fill="#C9C7E4"/>
<path d="M167.556 188.683H160.304V196.019H167.556V188.683Z" fill="#C9C7E4"/>
<path d="M167.556 181.431H160.304V188.683H167.556V181.431Z" fill="#036EB8"/>
<path d="M167.556 174.186H160.304V181.43H167.556V174.186Z" fill="#C9C7E4"/>
<path d="M167.556 166.849H160.304V174.186H167.556V166.849Z" fill="#036EB8"/>
<path d="M167.556 159.604H160.304V166.849H167.556V159.604Z" fill="#036EB8"/>
<path d="M167.556 152.353H160.304V159.604H167.556V152.353Z" fill="#C9C7E4"/>
<path d="M167.556 145.016H160.304V152.352H167.556V145.016Z" fill="#036EB8"/>
<path d="M167.556 137.771H160.304V145.016H167.556V137.771Z" fill="#036EB8"/>
<path d="M167.556 130.526H160.304V137.771H167.556V130.526Z" fill="#036EB8"/>
<path d="M167.556 123.274H160.304V130.526H167.556V123.274Z" fill="#036EB8"/>
<path d="M167.556 115.937H160.304V123.274H167.556V115.937Z" fill="black"/>
<path d="M167.556 108.692H160.304V115.937H167.556V108.692Z" fill="black"/>
<path d="M167.556 101.447H160.304V108.692H167.556V101.447Z" fill="black"/>
<path d="M167.556 94.1038H160.304V101.447H167.556V94.1038Z" fill="black"/>
<path d="M167.556 86.8588H160.304V94.1038H167.556V86.8588Z" fill="#725325"/>
<path d="M167.556 79.6136H160.304V86.8587H167.556V79.6136Z" fill="#725325"/>
<path d="M167.556 72.277H160.304V79.6137H167.556V72.277Z" fill="#725325"/>
<path d="M167.556 65.0253H160.304V72.2769H167.556V65.0253Z" fill="#725325"/>
<path d="M167.556 57.7802H160.304V65.0253H167.556V57.7802Z" fill="#725325"/>
<path d="M167.556 50.4435H160.304V57.7802H167.556V50.4435Z" fill="#725325"/>
<path d="M167.556 43.1984H160.304V50.4434H167.556V43.1984Z" fill="#725325"/>
<path d="M167.556 35.9468H160.304V43.1984H167.556V35.9468Z" fill="#725325"/>
<path d="M167.556 28.61H160.304V35.9467H167.556V28.61Z" fill="#725325"/>
<path d="M167.556 21.365H160.304V28.6101H167.556V21.365Z" fill="#725325"/>
<path d="M167.556 14.1199H160.304V21.365H167.556V14.1199Z" fill="#725325"/>
<path d="M167.556 6.86816H160.304V14.1198H167.556V6.86816Z" fill="#725325"/>
<path d="M167.556 -0.468506H160.304V6.8682H167.556V-0.468506Z" fill="#B28C42"/>
<path d="M160.304 276.003H152.96V283.255H160.304V276.003Z" fill="#B28C42"/>
<path d="M160.304 268.758H152.96V276.003H160.304V268.758Z" fill="#725325"/>
<path d="M160.304 261.422H152.96V268.758H160.304V261.422Z" fill="#725325"/>
<path d="M160.304 254.177H152.96V261.422H160.304V254.177Z" fill="#725325"/>
<path d="M160.304 246.925H152.96V254.176H160.304V246.925Z" fill="#725325"/>
<path d="M160.304 239.68H152.96V246.925H160.304V239.68Z" fill="#725325"/>
<path d="M160.304 232.343H152.96V239.68H160.304V232.343Z" fill="#725325"/>
<path d="M160.304 225.098H152.96V232.342H160.304V225.098Z" fill="#725325"/>
<path d="M160.304 217.846H152.96V225.098H160.304V217.846Z" fill="#036EB8"/>
<path d="M160.304 210.51H152.96V217.846H160.304V210.51Z" fill="#036EB8"/>
<path d="M160.304 203.265H152.96V210.51H160.304V203.265Z" fill="#036EB8"/>
<path d="M160.304 196.019H152.96V203.264H160.304V196.019Z" fill="#036EB8"/>
<path d="M160.304 188.683H152.96V196.019H160.304V188.683Z" fill="#C9C7E4"/>
<path d="M160.304 181.431H152.96V188.683H160.304V181.431Z" fill="#036EB8"/>
<path d="M160.304 174.186H152.96V181.43H160.304V174.186Z" fill="#C9C7E4"/>
<path d="M160.304 166.849H152.96V174.186H160.304V166.849Z" fill="#036EB8"/>
<path d="M160.304 159.604H152.96V166.849H160.304V159.604Z" fill="#036EB8"/>
<path d="M160.304 152.353H152.96V159.604H160.304V152.353Z" fill="#C9C7E4"/>
<path d="M160.304 145.016H152.96V152.352H160.304V145.016Z" fill="#C9C7E4"/>
<path d="M160.304 137.771H152.96V145.016H160.304V137.771Z" fill="#036EB8"/>
<path d="M160.304 130.526H152.96V137.771H160.304V130.526Z" fill="#036EB8"/>
<path d="M160.304 123.274H152.96V130.526H160.304V123.274Z" fill="#036EB8"/>
<path d="M160.304 115.937H152.96V123.274H160.304V115.937Z" fill="#E2C5A2"/>
<path d="M160.304 108.692H152.96V115.937H160.304V108.692Z" fill="#E2C5A2"/>
<path d="M160.304 101.447H152.96V108.692H160.304V101.447Z" fill="#E2C5A2"/>
<path d="M160.304 94.1038H152.96V101.447H160.304V94.1038Z" fill="black"/>
<path d="M160.304 86.8588H152.96V94.1038H160.304V86.8588Z" fill="black"/>
<path d="M160.304 79.6136H152.96V86.8587H160.304V79.6136Z" fill="black"/>
<path d="M160.304 72.277H152.96V79.6137H160.304V72.277Z" fill="#725325"/>
<path d="M160.304 65.0253H152.96V72.2769H160.304V65.0253Z" fill="#725325"/>
<path d="M160.304 57.7802H152.96V65.0253H160.304V57.7802Z" fill="#725325"/>
<path d="M160.304 50.4435H152.96V57.7802H160.304V50.4435Z" fill="#725325"/>
<path d="M160.304 43.1984H152.96V50.4434H160.304V43.1984Z" fill="#725325"/>
<path d="M160.304 35.9468H152.96V43.1984H160.304V35.9468Z" fill="#725325"/>
<path d="M160.304 28.61H152.96V35.9467H160.304V28.61Z" fill="#725325"/>
<path d="M160.304 21.365H152.96V28.6101H160.304V21.365Z" fill="#725325"/>
<path d="M160.304 14.1199H152.96V21.365H160.304V14.1199Z" fill="#725325"/>
<path d="M160.304 6.86816H152.96V14.1198H160.304V6.86816Z" fill="#725325"/>
<path d="M160.304 -0.468506H152.96V6.8682H160.304V-0.468506Z" fill="#B28C42"/>
<path d="M152.96 276.003H145.707V283.255H152.96V276.003Z" fill="#B28C42"/>
<path d="M152.96 268.758H145.707V276.003H152.96V268.758Z" fill="#725325"/>
<path d="M152.96 261.422H145.707V268.758H152.96V261.422Z" fill="#725325"/>
<path d="M152.96 254.177H145.707V261.422H152.96V254.177Z" fill="#725325"/>
<path d="M152.96 246.925H145.707V254.176H152.96V246.925Z" fill="#725325"/>
<path d="M152.96 239.68H145.707V246.925H152.96V239.68Z" fill="#725325"/>
<path d="M152.96 232.343H145.707V239.68H152.96V232.343Z" fill="#725325"/>
<path d="M152.96 225.098H145.707V232.342H152.96V225.098Z" fill="#725325"/>
<path d="M152.96 217.846H145.707V225.098H152.96V217.846Z" fill="#C9C7E4"/>
<path d="M152.96 210.51H145.707V217.846H152.96V210.51Z" fill="#036EB8"/>
<path d="M152.96 203.265H145.707V210.51H152.96V203.265Z" fill="#036EB8"/>
<path d="M152.96 196.019H145.707V203.264H152.96V196.019Z" fill="#036EB8"/>
<path d="M152.96 188.683H145.707V196.019H152.96V188.683Z" fill="#C9C7E4"/>
<path d="M152.96 181.431H145.707V188.683H152.96V181.431Z" fill="#036EB8"/>
<path d="M152.96 174.186H145.707V181.43H152.96V174.186Z" fill="#C9C7E4"/>
<path d="M152.96 166.849H145.707V174.186H152.96V166.849Z" fill="#C9C7E4"/>
<path d="M152.96 159.604H145.707V166.849H152.96V159.604Z" fill="#036EB8"/>
<path d="M152.96 152.353H145.707V159.604H152.96V152.353Z" fill="#036EB8"/>
<path d="M152.96 145.016H145.707V152.352H152.96V145.016Z" fill="#C9C7E4"/>
<path d="M152.96 137.771H145.707V145.016H152.96V137.771Z" fill="#036EB8"/>
<path d="M152.96 130.526H145.707V137.771H152.96V130.526Z" fill="#036EB8"/>
<path d="M152.96 123.274H145.707V130.526H152.96V123.274Z" fill="#036EB8"/>
<path d="M152.96 115.937H145.707V123.274H152.96V115.937Z" fill="#036EB8"/>
<path d="M152.96 108.692H145.707V115.937H152.96V108.692Z" fill="#036EB8"/>
<path d="M152.96 101.447H145.707V108.692H152.96V101.447Z" fill="#E2C5A2"/>
<path d="M152.96 94.1038H145.707V101.447H152.96V94.1038Z" fill="#E2C5A2"/>
<path d="M152.96 86.8588H145.707V94.1038H152.96V86.8588Z" fill="#E2C5A2"/>
<path d="M152.96 79.6136H145.707V86.8587H152.96V79.6136Z" fill="black"/>
<path d="M152.96 72.277H145.707V79.6137H152.96V72.277Z" fill="black"/>
<path d="M152.96 65.0253H145.707V72.2769H152.96V65.0253Z" fill="#725325"/>
<path d="M152.96 57.7802H145.707V65.0253H152.96V57.7802Z" fill="#725325"/>
<path d="M152.96 50.4435H145.707V57.7802H152.96V50.4435Z" fill="#725325"/>
<path d="M152.96 43.1984H145.707V50.4434H152.96V43.1984Z" fill="#725325"/>
<path d="M152.96 35.9468H145.707V43.1984H152.96V35.9468Z" fill="#725325"/>
<path d="M152.96 28.61H145.707V35.9467H152.96V28.61Z" fill="#725325"/>
<path d="M152.96 21.365H145.707V28.6101H152.96V21.365Z" fill="#725325"/>
<path d="M152.96 14.1199H145.707V21.365H152.96V14.1199Z" fill="#725325"/>
<path d="M152.96 6.86816H145.707V14.1198H152.96V6.86816Z" fill="#725325"/>
<path d="M152.96 -0.468506H145.707V6.8682H152.96V-0.468506Z" fill="#B28C42"/>
<path d="M145.707 276.003H138.448V283.255H145.707V276.003Z" fill="#B28C42"/>
<path d="M145.707 268.758H138.448V276.003H145.707V268.758Z" fill="#725325"/>
<path d="M145.707 261.422H138.448V268.758H145.707V261.422Z" fill="#725325"/>
<path d="M145.707 254.177H138.448V261.422H145.707V254.177Z" fill="#725325"/>
<path d="M145.707 246.925H138.448V254.176H145.707V246.925Z" fill="#725325"/>
<path d="M145.707 239.68H138.448V246.925H145.707V239.68Z" fill="#725325"/>
<path d="M145.707 232.343H138.448V239.68H145.707V232.343Z" fill="#725325"/>
<path d="M145.707 225.098H138.448V232.342H145.707V225.098Z" fill="#725325"/>
<path d="M145.707 217.846H138.448V225.098H145.707V217.846Z" fill="#C9C7E4"/>
<path d="M145.707 210.51H138.448V217.846H145.707V210.51Z" fill="#036EB8"/>
<path d="M145.707 203.265H138.448V210.51H145.707V203.265Z" fill="#036EB8"/>
<path d="M145.707 196.019H138.448V203.264H145.707V196.019Z" fill="#036EB8"/>
<path d="M145.707 188.683H138.448V196.019H145.707V188.683Z" fill="#C9C7E4"/>
<path d="M145.707 181.431H138.448V188.683H145.707V181.431Z" fill="#036EB8"/>
<path d="M145.707 174.186H138.448V181.43H145.707V174.186Z" fill="#036EB8"/>
<path d="M145.707 166.849H138.448V174.186H145.707V166.849Z" fill="#C9C7E4"/>
<path d="M145.707 159.604H138.448V166.849H145.707V159.604Z" fill="#036EB8"/>
<path d="M145.707 152.353H138.448V159.604H145.707V152.353Z" fill="#036EB8"/>
<path d="M145.707 145.016H138.448V152.352H145.707V145.016Z" fill="#036EB8"/>
<path d="M145.707 137.771H138.448V145.016H145.707V137.771Z" fill="#C9C7E4"/>
<path d="M145.707 130.526H138.448V137.771H145.707V130.526Z" fill="#C9C7E4"/>
<path d="M145.707 123.274H138.448V130.526H145.707V123.274Z" fill="#036EB8"/>
<path d="M145.707 115.937H138.448V123.274H145.707V115.937Z" fill="#036EB8"/>
<path d="M145.707 108.692H138.448V115.937H145.707V108.692Z" fill="#036EB8"/>
<path d="M145.707 101.447H138.448V108.692H145.707V101.447Z" fill="#E2C5A2"/>
<path d="M145.707 94.1038H138.448V101.447H145.707V94.1038Z" fill="#E2C5A2"/>
<path d="M145.707 86.8588H138.448V94.1038H145.707V86.8588Z" fill="#E8CEAA"/>
<path d="M145.707 79.6136H138.448V86.8587H145.707V79.6136Z" fill="black"/>
<path d="M145.707 72.277H138.448V79.6137H145.707V72.277Z" fill="black"/>
<path d="M145.707 65.0253H138.448V72.2769H145.707V65.0253Z" fill="#725325"/>
<path d="M145.707 57.7802H138.448V65.0253H145.707V57.7802Z" fill="#725325"/>
<path d="M145.707 50.4435H138.448V57.7802H145.707V50.4435Z" fill="#725325"/>
<path d="M145.707 43.1984H138.448V50.4434H145.707V43.1984Z" fill="#725325"/>
<path d="M145.707 35.9468H138.448V43.1984H145.707V35.9468Z" fill="#725325"/>
<path d="M145.707 28.61H138.448V35.9467H145.707V28.61Z" fill="#725325"/>
<path d="M145.707 21.365H138.448V28.6101H145.707V21.365Z" fill="#725325"/>
<path d="M145.707 14.1199H138.448V21.365H145.707V14.1199Z" fill="#725325"/>
<path d="M145.707 6.86816H138.448V14.1198H145.707V6.86816Z" fill="#725325"/>
<path d="M145.707 -0.468506H138.448V6.8682H145.707V-0.468506Z" fill="#B28C42"/>
<path d="M138.449 276.003H131.196V283.255H138.449V276.003Z" fill="#B28C42"/>
<path d="M138.449 268.758H131.196V276.003H138.449V268.758Z" fill="#725325"/>
<path d="M138.449 261.422H131.196V268.758H138.449V261.422Z" fill="#725325"/>
<path d="M138.449 254.177H131.196V261.422H138.449V254.177Z" fill="#725325"/>
<path d="M138.449 246.925H131.196V254.176H138.449V246.925Z" fill="#725325"/>
<path d="M138.449 239.68H131.196V246.925H138.449V239.68Z" fill="#725325"/>
<path d="M138.449 232.343H131.196V239.68H138.449V232.343Z" fill="#725325"/>
<path d="M138.449 225.098H131.196V232.342H138.449V225.098Z" fill="#725325"/>
<path d="M138.449 217.846H131.196V225.098H138.449V217.846Z" fill="#036EB8"/>
<path d="M138.449 210.51H131.196V217.846H138.449V210.51Z" fill="#C9C7E4"/>
<path d="M138.449 203.265H131.196V210.51H138.449V203.265Z" fill="#036EB8"/>
<path d="M138.449 196.019H131.196V203.264H138.449V196.019Z" fill="#036EB8"/>
<path d="M138.449 188.683H131.196V196.019H138.449V188.683Z" fill="#C9C7E4"/>
<path d="M138.449 181.431H131.196V188.683H138.449V181.431Z" fill="#C9C7E4"/>
<path d="M138.449 174.186H131.196V181.43H138.449V174.186Z" fill="#036EB8"/>
<path d="M138.449 166.849H131.196V174.186H138.449V166.849Z" fill="#036EB8"/>
<path d="M138.449 159.604H131.196V166.849H138.449V159.604Z" fill="#C9C7E4"/>
<path d="M138.449 152.353H131.196V159.604H138.449V152.353Z" fill="#036EB8"/>
<path d="M138.449 145.016H131.196V152.352H138.449V145.016Z" fill="#036EB8"/>
<path d="M138.449 137.771H131.196V145.016H138.449V137.771Z" fill="#036EB8"/>
<path d="M138.449 130.526H131.196V137.771H138.449V130.526Z" fill="#C9C7E4"/>
<path d="M138.449 123.274H131.196V130.526H138.449V123.274Z" fill="#036EB8"/>
<path d="M138.449 115.937H131.196V123.274H138.449V115.937Z" fill="#E2C5A2"/>
<path d="M138.449 108.692H131.196V115.937H138.449V108.692Z" fill="#E2C5A2"/>
<path d="M138.449 101.447H131.196V108.692H138.449V101.447Z" fill="#E2C5A2"/>
<path d="M138.449 94.1038H131.196V101.447H138.449V94.1038Z" fill="black"/>
<path d="M138.449 86.8588H131.196V94.1038H138.449V86.8588Z" fill="black"/>
<path d="M138.449 79.6136H131.196V86.8587H138.449V79.6136Z" fill="black"/>
<path d="M138.449 72.277H131.196V79.6137H138.449V72.277Z" fill="#725325"/>
<path d="M138.449 65.0253H131.196V72.2769H138.449V65.0253Z" fill="#725325"/>
<path d="M138.449 57.7802H131.196V65.0253H138.449V57.7802Z" fill="#725325"/>
<path d="M138.449 50.4435H131.196V57.7802H138.449V50.4435Z" fill="#725325"/>
<path d="M138.449 43.1984H131.196V50.4434H138.449V43.1984Z" fill="#725325"/>
<path d="M138.449 35.9468H131.196V43.1984H138.449V35.9468Z" fill="#725325"/>
<path d="M138.449 28.61H131.196V35.9467H138.449V28.61Z" fill="#725325"/>
<path d="M138.449 21.365H131.196V28.6101H138.449V21.365Z" fill="#725325"/>
<path d="M138.449 14.1199H131.196V21.365H138.449V14.1199Z" fill="#725325"/>
<path d="M138.449 6.86816H131.196V14.1198H138.449V6.86816Z" fill="#725325"/>
<path d="M138.449 -0.468506H131.196V6.8682H138.449V-0.468506Z" fill="#B28C42"/>
<path d="M131.196 276.003H123.852V283.255H131.196V276.003Z" fill="#B28C42"/>
<path d="M131.196 268.758H123.852V276.003H131.196V268.758Z" fill="#725325"/>
<path d="M131.196 261.422H123.852V268.758H131.196V261.422Z" fill="#725325"/>
<path d="M131.196 254.177H123.852V261.422H131.196V254.177Z" fill="#725325"/>
<path d="M131.196 246.925H123.852V254.176H131.196V246.925Z" fill="#725325"/>
<path d="M131.196 239.68H123.852V246.925H131.196V239.68Z" fill="#725325"/>
<path d="M131.196 232.343H123.852V239.68H131.196V232.343Z" fill="#725325"/>
<path d="M131.196 225.098H123.852V232.342H131.196V225.098Z" fill="#725325"/>
<path d="M131.196 217.846H123.852V225.098H131.196V217.846Z" fill="#036EB8"/>
<path d="M131.196 210.51H123.852V217.846H131.196V210.51Z" fill="#C9C7E4"/>
<path d="M131.196 203.265H123.852V210.51H131.196V203.265Z" fill="#036EB8"/>
<path d="M131.196 196.019H123.852V203.264H131.196V196.019Z" fill="#036EB8"/>
<path d="M131.196 188.683H123.852V196.019H131.196V188.683Z" fill="#036EB8"/>
<path d="M131.196 181.431H123.852V188.683H131.196V181.431Z" fill="#C9C7E4"/>
<path d="M131.196 174.186H123.852V181.43H131.196V174.186Z" fill="#036EB8"/>
<path d="M131.196 166.849H123.852V174.186H131.196V166.849Z" fill="#036EB8"/>
<path d="M131.196 159.604H123.852V166.849H131.196V159.604Z" fill="#C9C7E4"/>
<path d="M131.196 152.353H123.852V159.604H131.196V152.353Z" fill="#C9C7E4"/>
<path d="M131.196 145.016H123.852V152.352H131.196V145.016Z" fill="#036EB8"/>
<path d="M131.196 137.771H123.852V145.016H131.196V137.771Z" fill="#036EB8"/>
<path d="M131.196 130.526H123.852V137.771H131.196V130.526Z" fill="#036EB8"/>
<path d="M131.196 123.274H123.852V130.526H131.196V123.274Z" fill="#C9C7E4"/>
<path d="M131.196 115.937H123.852V123.274H131.196V115.937Z" fill="black"/>
<path d="M131.196 108.692H123.852V115.937H131.196V108.692Z" fill="black"/>
<path d="M131.196 101.447H123.852V108.692H131.196V101.447Z" fill="black"/>
<path d="M131.196 94.1038H123.852V101.447H131.196V94.1038Z" fill="black"/>
<path d="M131.196 86.8588H123.852V94.1038H131.196V86.8588Z" fill="#725325"/>
<path d="M131.196 79.6136H123.852V86.8587H131.196V79.6136Z" fill="#725325"/>
<path d="M131.196 72.277H123.852V79.6137H131.196V72.277Z" fill="#725325"/>
<path d="M131.196 65.0253H123.852V72.2769H131.196V65.0253Z" fill="#725325"/>
<path d="M131.196 57.7802H123.852V65.0253H131.196V57.7802Z" fill="#725325"/>
<path d="M131.196 50.4435H123.852V57.7802H131.196V50.4435Z" fill="#725325"/>
<path d="M131.196 43.1984H123.852V50.4434H131.196V43.1984Z" fill="#725325"/>
<path d="M131.196 35.9468H123.852V43.1984H131.196V35.9468Z" fill="#725325"/>
<path d="M131.196 28.61H123.852V35.9467H131.196V28.61Z" fill="#725325"/>
<path d="M131.196 21.365H123.852V28.6101H131.196V21.365Z" fill="#725325"/>
<path d="M131.196 14.1199H123.852V21.365H131.196V14.1199Z" fill="#725325"/>
<path d="M131.196 6.86816H123.852V14.1198H131.196V6.86816Z" fill="#725325"/>
<path d="M131.196 -0.468506H123.852V6.8682H131.196V-0.468506Z" fill="#B28C42"/>
<path d="M123.851 276.003H116.599V283.255H123.851V276.003Z" fill="#B28C42"/>
<path d="M123.851 268.758H116.599V276.003H123.851V268.758Z" fill="#725325"/>
<path d="M123.851 261.422H116.599V268.758H123.851V261.422Z" fill="#725325"/>
<path d="M123.851 254.177H116.599V261.422H123.851V254.177Z" fill="#725325"/>
<path d="M123.851 246.925H116.599V254.176H123.851V246.925Z" fill="#725325"/>
<path d="M123.851 239.68H116.599V246.925H123.851V239.68Z" fill="#725325"/>
<path d="M123.851 232.343H116.599V239.68H123.851V232.343Z" fill="#725325"/>
<path d="M123.851 225.098H116.599V232.342H123.851V225.098Z" fill="#725325"/>
<path d="M123.851 217.846H116.599V225.098H123.851V217.846Z" fill="#036EB8"/>
<path d="M123.851 210.51H116.599V217.846H123.851V210.51Z" fill="#C9C7E4"/>
<path d="M123.851 203.265H116.599V210.51H123.851V203.265Z" fill="#036EB8"/>
<path d="M123.851 196.019H116.599V203.264H123.851V196.019Z" fill="#036EB8"/>
<path d="M123.851 188.683H116.599V196.019H123.851V188.683Z" fill="#036EB8"/>
<path d="M123.851 181.431H116.599V188.683H123.851V181.431Z" fill="#C9C7E4"/>
<path d="M123.851 174.186H116.599V181.43H123.851V174.186Z" fill="#036EB8"/>
<path d="M123.851 166.849H116.599V174.186H123.851V166.849Z" fill="#036EB8"/>
<path d="M123.851 159.604H116.599V166.849H123.851V159.604Z" fill="#036EB8"/>
<path d="M123.851 152.353H116.599V159.604H123.851V152.353Z" fill="#C9C7E4"/>
<path d="M123.851 145.016H116.599V152.352H123.851V145.016Z" fill="#C9C7E4"/>
<path d="M123.851 137.771H116.599V145.016H123.851V137.771Z" fill="#036EB8"/>
<path d="M123.851 130.526H116.599V137.771H123.851V130.526Z" fill="#036EB8"/>
<path d="M123.851 123.274H116.599V130.526H123.851V123.274Z" fill="#036EB8"/>
<path d="M123.851 115.937H116.599V123.274H123.851V115.937Z" fill="black"/>
<path d="M123.851 108.692H116.599V115.937H123.851V108.692Z" fill="black"/>
<path d="M123.851 101.447H116.599V108.692H123.851V101.447Z" fill="#725325"/>
<path d="M123.851 94.1038H116.599V101.447H123.851V94.1038Z" fill="#725325"/>
<path d="M123.851 86.8588H116.599V94.1038H123.851V86.8588Z" fill="#725325"/>
<path d="M123.851 79.6136H116.599V86.8587H123.851V79.6136Z" fill="#725325"/>
<path d="M123.851 72.277H116.599V79.6137H123.851V72.277Z" fill="#725325"/>
<path d="M123.851 65.0253H116.599V72.2769H123.851V65.0253Z" fill="#725325"/>
<path d="M123.851 57.7802H116.599V65.0253H123.851V57.7802Z" fill="#725325"/>
<path d="M123.851 50.4435H116.599V57.7802H123.851V50.4435Z" fill="#725325"/>
<path d="M123.851 43.1984H116.599V50.4434H123.851V43.1984Z" fill="#725325"/>
<path d="M123.851 35.9468H116.599V43.1984H123.851V35.9468Z" fill="#725325"/>
<path d="M123.851 28.61H116.599V35.9467H123.851V28.61Z" fill="#725325"/>
<path d="M123.851 21.365H116.599V28.6101H123.851V21.365Z" fill="#725325"/>
<path d="M123.851 14.1199H116.599V21.365H123.851V14.1199Z" fill="#725325"/>
<path d="M123.851 6.86816H116.599V14.1198H123.851V6.86816Z" fill="#725325"/>
<path d="M123.851 -0.468506H116.599V6.8682H123.851V-0.468506Z" fill="#B28C42"/>
<path d="M116.599 276.003H109.34V283.255H116.599V276.003Z" fill="#B28C42"/>
<path d="M116.599 268.758H109.34V276.003H116.599V268.758Z" fill="#725325"/>
<path d="M116.599 261.422H109.34V268.758H116.599V261.422Z" fill="#725325"/>
<path d="M116.599 254.177H109.34V261.422H116.599V254.177Z" fill="#725325"/>
<path d="M116.599 246.925H109.34V254.176H116.599V246.925Z" fill="#725325"/>
<path d="M116.599 239.68H109.34V246.925H116.599V239.68Z" fill="#725325"/>
<path d="M116.599 232.343H109.34V239.68H116.599V232.343Z" fill="#725325"/>
<path d="M116.599 225.098H109.34V232.342H116.599V225.098Z" fill="#725325"/>
<path d="M116.599 217.846H109.34V225.098H116.599V217.846Z" fill="#036EB8"/>
<path d="M116.599 210.51H109.34V217.846H116.599V210.51Z" fill="#036EB8"/>
<path d="M116.599 203.265H109.34V210.51H116.599V203.265Z" fill="#C9C7E4"/>
<path d="M116.599 196.019H109.34V203.264H116.599V196.019Z" fill="#036EB8"/>
<path d="M116.599 188.683H109.34V196.019H116.599V188.683Z" fill="#036EB8"/>
<path d="M116.599 181.431H109.34V188.683H116.599V181.431Z" fill="#036EB8"/>
<path d="M116.599 174.186H109.34V181.43H116.599V174.186Z" fill="#C9C7E4"/>
<path d="M116.599 166.849H109.34V174.186H116.599V166.849Z" fill="#036EB8"/>
<path d="M116.599 159.604H109.34V166.849H116.599V159.604Z" fill="#036EB8"/>
<path d="M116.599 152.353H109.34V159.604H116.599V152.353Z" fill="#036EB8"/>
<path d="M116.599 145.016H109.34V152.352H116.599V145.016Z" fill="#036EB8"/>
<path d="M116.599 137.771H109.34V145.016H116.599V137.771Z" fill="#C9C7E4"/>
<path d="M116.599 130.526H109.34V137.771H116.599V130.526Z" fill="#036EB8"/>
<path d="M116.599 123.274H109.34V130.526H116.599V123.274Z" fill="black"/>
<path d="M116.599 115.937H109.34V123.274H116.599V115.937Z" fill="black"/>
<path d="M116.599 108.692H109.34V115.937H116.599V108.692Z" fill="#725325"/>
<path d="M116.599 101.447H109.34V108.692H116.599V101.447Z" fill="#725325"/>
<path d="M116.599 94.1038H109.34V101.447H116.599V94.1038Z" fill="#725325"/>
<path d="M116.599 86.8588H109.34V94.1038H116.599V86.8588Z" fill="#725325"/>
<path d="M116.599 79.6136H109.34V86.8587H116.599V79.6136Z" fill="#725325"/>
<path d="M116.599 72.277H109.34V79.6137H116.599V72.277Z" fill="#725325"/>
<path d="M116.599 65.0253H109.34V72.2769H116.599V65.0253Z" fill="#725325"/>
<path d="M116.599 57.7802H109.34V65.0253H116.599V57.7802Z" fill="#725325"/>
<path d="M116.599 50.4435H109.34V57.7802H116.599V50.4435Z" fill="#725325"/>
<path d="M116.599 43.1984H109.34V50.4434H116.599V43.1984Z" fill="#725325"/>
<path d="M116.599 35.9468H109.34V43.1984H116.599V35.9468Z" fill="#725325"/>
<path d="M116.599 28.61H109.34V35.9467H116.599V28.61Z" fill="#725325"/>
<path d="M116.599 21.365H109.34V28.6101H116.599V21.365Z" fill="#725325"/>
<path d="M116.599 14.1199H109.34V21.365H116.599V14.1199Z" fill="#725325"/>
<path d="M116.599 6.86816H109.34V14.1198H116.599V6.86816Z" fill="#B28C42"/>
<path d="M116.599 -0.468506H109.34V6.8682H116.599V-0.468506Z" fill="#B28C42"/>
<path d="M109.339 276.003H101.995V283.255H109.339V276.003Z" fill="#B28C42"/>
<path d="M109.339 268.758H101.995V276.003H109.339V268.758Z" fill="#B28C42"/>
<path d="M109.339 261.422H101.995V268.758H109.339V261.422Z" fill="#725325"/>
<path d="M109.339 254.177H101.995V261.422H109.339V254.177Z" fill="#725325"/>
<path d="M109.339 246.925H101.995V254.176H109.339V246.925Z" fill="#725325"/>
<path d="M109.339 239.68H101.995V246.925H109.339V239.68Z" fill="#725325"/>
<path d="M109.339 232.343H101.995V239.68H109.339V232.343Z" fill="#725325"/>
<path d="M109.339 225.098H101.995V232.342H109.339V225.098Z" fill="#725325"/>
<path d="M109.339 217.846H101.995V225.098H109.339V217.846Z" fill="#036EB8"/>
<path d="M109.339 210.51H101.995V217.846H109.339V210.51Z" fill="#036EB8"/>
<path d="M109.339 203.265H101.995V210.51H109.339V203.265Z" fill="#C9C7E4"/>
<path d="M109.339 196.019H101.995V203.264H109.339V196.019Z" fill="#C9C7E4"/>
<path d="M109.339 188.683H101.995V196.019H109.339V188.683Z" fill="#036EB8"/>
<path d="M109.339 181.431H101.995V188.683H109.339V181.431Z" fill="#036EB8"/>
<path d="M109.339 174.186H101.995V181.43H109.339V174.186Z" fill="#C9C7E4"/>
<path d="M109.339 166.849H101.995V174.186H109.339V166.849Z" fill="#C9C7E4"/>
<path d="M109.339 159.604H101.995V166.849H109.339V159.604Z" fill="#036EB8"/>
<path d="M109.339 152.353H101.995V159.604H109.339V152.353Z" fill="#036EB8"/>
<path d="M109.339 145.016H101.995V152.352H109.339V145.016Z" fill="#036EB8"/>
<path d="M109.339 137.771H101.995V145.016H109.339V137.771Z" fill="#036EB8"/>
<path d="M109.339 130.526H101.995V137.771H109.339V130.526Z" fill="#725325"/>
<path d="M109.339 123.274H101.995V130.526H109.339V123.274Z" fill="#725325"/>
<path d="M109.339 115.937H101.995V123.274H109.339V115.937Z" fill="#725325"/>
<path d="M109.339 108.692H101.995V115.937H109.339V108.692Z" fill="#725325"/>
<path d="M109.339 101.447H101.995V108.692H109.339V101.447Z" fill="#725325"/>
<path d="M109.339 94.1038H101.995V101.447H109.339V94.1038Z" fill="#725325"/>
<path d="M109.339 86.8588H101.995V94.1038H109.339V86.8588Z" fill="#725325"/>
<path d="M109.339 79.6136H101.995V86.8587H109.339V79.6136Z" fill="#725325"/>
<path d="M109.339 72.277H101.995V79.6137H109.339V72.277Z" fill="#725325"/>
<path d="M109.339 65.0253H101.995V72.2769H109.339V65.0253Z" fill="#725325"/>
<path d="M109.339 57.7802H101.995V65.0253H109.339V57.7802Z" fill="#725325"/>
<path d="M109.339 50.4435H101.995V57.7802H109.339V50.4435Z" fill="#725325"/>
<path d="M109.339 43.1984H101.995V50.4434H109.339V43.1984Z" fill="#725325"/>
<path d="M109.339 35.9468H101.995V43.1984H109.339V35.9468Z" fill="#725325"/>
<path d="M109.339 28.61H101.995V35.9467H109.339V28.61Z" fill="#725325"/>
<path d="M109.339 21.365H101.995V28.6101H109.339V21.365Z" fill="#725325"/>
<path d="M109.339 14.1199H101.995V21.365H109.339V14.1199Z" fill="#725325"/>
<path d="M109.339 6.86816H101.995V14.1198H109.339V6.86816Z" fill="#B28C42"/>
<path d="M101.996 268.758H94.7432V276.003H101.996V268.758Z" fill="#B28C42"/>
<path d="M101.996 261.422H94.7432V268.758H101.996V261.422Z" fill="#725325"/>
<path d="M101.996 254.177H94.7432V261.422H101.996V254.177Z" fill="#725325"/>
<path d="M101.996 246.925H94.7432V254.176H101.996V246.925Z" fill="#725325"/>
<path d="M101.996 239.68H94.7432V246.925H101.996V239.68Z" fill="#725325"/>
<path d="M101.996 232.343H94.7432V239.68H101.996V232.343Z" fill="#725325"/>
<path d="M101.996 225.098H94.7432V232.342H101.996V225.098Z" fill="#725325"/>
<path d="M101.996 217.846H94.7432V225.098H101.996V217.846Z" fill="#036EB8"/>
<path d="M101.996 210.51H94.7432V217.846H101.996V210.51Z" fill="#036EB8"/>
<path d="M101.996 203.265H94.7432V210.51H101.996V203.265Z" fill="#036EB8"/>
<path d="M101.996 196.019H94.7432V203.264H101.996V196.019Z" fill="#C9C7E4"/>
<path d="M101.996 188.683H94.7432V196.019H101.996V188.683Z" fill="#C9C7E4"/>
<path d="M101.996 181.431H94.7432V188.683H101.996V181.431Z" fill="#036EB8"/>
<path d="M101.996 174.186H94.7432V181.43H101.996V174.186Z" fill="#036EB8"/>
<path d="M101.996 166.849H94.7432V174.186H101.996V166.849Z" fill="#036EB8"/>
<path d="M101.996 159.604H94.7432V166.849H101.996V159.604Z" fill="#C9C7E4"/>
<path d="M101.996 152.353H94.7432V159.604H101.996V152.353Z" fill="#036EB8"/>
<path d="M101.996 145.016H94.7432V152.352H101.996V145.016Z" fill="#725325"/>
<path d="M101.996 137.771H94.7432V145.016H101.996V137.771Z" fill="#725325"/>
<path d="M101.996 130.526H94.7432V137.771H101.996V130.526Z" fill="#725325"/>
<path d="M101.996 123.274H94.7432V130.526H101.996V123.274Z" fill="#725325"/>
<path d="M101.996 115.937H94.7432V123.274H101.996V115.937Z" fill="#725325"/>
<path d="M101.996 108.692H94.7432V115.937H101.996V108.692Z" fill="#725325"/>
<path d="M101.996 101.447H94.7432V108.692H101.996V101.447Z" fill="#725325"/>
<path d="M101.996 94.1038H94.7432V101.447H101.996V94.1038Z" fill="#725325"/>
<path d="M101.996 86.8588H94.7432V94.1038H101.996V86.8588Z" fill="#725325"/>
<path d="M101.996 79.6136H94.7432V86.8587H101.996V79.6136Z" fill="#725325"/>
<path d="M101.996 72.277H94.7432V79.6137H101.996V72.277Z" fill="#725325"/>
<path d="M101.996 65.0253H94.7432V72.2769H101.996V65.0253Z" fill="#725325"/>
<path d="M101.996 57.7802H94.7432V65.0253H101.996V57.7802Z" fill="#725325"/>
<path d="M101.996 50.4435H94.7432V57.7802H101.996V50.4435Z" fill="#725325"/>
<path d="M101.996 43.1984H94.7432V50.4434H101.996V43.1984Z" fill="#725325"/>
<path d="M101.996 35.9468H94.7432V43.1984H101.996V35.9468Z" fill="#725325"/>
<path d="M101.996 28.61H94.7432V35.9467H101.996V28.61Z" fill="#725325"/>
<path d="M101.996 21.365H94.7432V28.6101H101.996V21.365Z" fill="#725325"/>
<path d="M101.996 14.1199H94.7432V21.365H101.996V14.1199Z" fill="#725325"/>
<path d="M101.996 6.86816H94.7432V14.1198H101.996V6.86816Z" fill="#B28C42"/>
<path d="M94.7428 268.758H87.4902V276.003H94.7428V268.758Z" fill="#B28C42"/>
<path d="M94.7428 261.422H87.4902V268.758H94.7428V261.422Z" fill="#B28C42"/>
<path d="M94.7428 254.177H87.4902V261.422H94.7428V254.177Z" fill="#725325"/>
<path d="M94.7428 246.925H87.4902V254.176H94.7428V246.925Z" fill="#725325"/>
<path d="M94.7428 239.68H87.4902V246.925H94.7428V239.68Z" fill="#725325"/>
<path d="M94.7428 232.343H87.4902V239.68H94.7428V232.343Z" fill="#725325"/>
<path d="M94.7428 225.098H87.4902V232.342H94.7428V225.098Z" fill="#725325"/>
<path d="M94.7428 217.846H87.4902V225.098H94.7428V217.846Z" fill="#036EB8"/>
<path d="M94.7428 210.51H87.4902V217.846H94.7428V210.51Z" fill="#036EB8"/>
<path d="M94.7428 203.265H87.4902V210.51H94.7428V203.265Z" fill="#036EB8"/>
<path d="M94.7428 196.019H87.4902V203.264H94.7428V196.019Z" fill="#036EB8"/>
<path d="M94.7428 188.683H87.4902V196.019H94.7428V188.683Z" fill="#C9C7E4"/>
<path d="M94.7428 181.431H87.4902V188.683H94.7428V181.431Z" fill="#036EB8"/>
<path d="M94.7428 174.186H87.4902V181.43H94.7428V174.186Z" fill="#036EB8"/>
<path d="M94.7428 166.849H87.4902V174.186H94.7428V166.849Z" fill="#036EB8"/>
<path d="M94.7428 159.604H87.4902V166.849H94.7428V159.604Z" fill="#036EB8"/>
<path d="M94.7428 152.353H87.4902V159.604H94.7428V152.353Z" fill="#725325"/>
<path d="M94.7428 145.016H87.4902V152.352H94.7428V145.016Z" fill="#725325"/>
<path d="M94.7428 137.771H87.4902V145.016H94.7428V137.771Z" fill="#725325"/>
<path d="M94.7428 130.526H87.4902V137.771H94.7428V130.526Z" fill="#725325"/>
<path d="M94.7428 123.274H87.4902V130.526H94.7428V123.274Z" fill="#725325"/>
<path d="M94.7428 115.937H87.4902V123.274H94.7428V115.937Z" fill="#725325"/>
<path d="M94.7428 108.692H87.4902V115.937H94.7428V108.692Z" fill="#725325"/>
<path d="M94.7428 101.447H87.4902V108.692H94.7428V101.447Z" fill="#725325"/>
<path d="M94.7428 94.1038H87.4902V101.447H94.7428V94.1038Z" fill="#725325"/>
<path d="M94.7428 86.8588H87.4902V94.1038H94.7428V86.8588Z" fill="#725325"/>
<path d="M94.7428 79.6136H87.4902V86.8587H94.7428V79.6136Z" fill="#725325"/>
<path d="M94.7428 72.277H87.4902V79.6137H94.7428V72.277Z" fill="#725325"/>
<path d="M94.7428 65.0253H87.4902V72.2769H94.7428V65.0253Z" fill="#725325"/>
<path d="M94.7428 57.7802H87.4902V65.0253H94.7428V57.7802Z" fill="#725325"/>
<path d="M94.7428 50.4435H87.4902V57.7802H94.7428V50.4435Z" fill="#725325"/>
<path d="M94.7428 43.1984H87.4902V50.4434H94.7428V43.1984Z" fill="#725325"/>
<path d="M94.7428 35.9468H87.4902V43.1984H94.7428V35.9468Z" fill="#725325"/>
<path d="M94.7428 28.61H87.4902V35.9467H94.7428V28.61Z" fill="#725325"/>
<path d="M94.7428 21.365H87.4902V28.6101H94.7428V21.365Z" fill="#725325"/>
<path d="M94.7428 14.1199H87.4902V21.365H94.7428V14.1199Z" fill="#B28C42"/>
<path d="M94.7428 6.86816H87.4902V14.1198H94.7428V6.86816Z" fill="#B28C42"/>
<path d="M87.4908 261.422H80.1465V268.758H87.4908V261.422Z" fill="#B28C42"/>
<path d="M87.4908 254.177H80.1465V261.422H87.4908V254.177Z" fill="#725325"/>
<path d="M87.4908 246.925H80.1465V254.176H87.4908V246.925Z" fill="#725325"/>
<path d="M87.4908 239.68H80.1465V246.925H87.4908V239.68Z" fill="#725325"/>
<path d="M87.4908 232.343H80.1465V239.68H87.4908V232.343Z" fill="#725325"/>
<path d="M87.4908 225.098H80.1465V232.342H87.4908V225.098Z" fill="#725325"/>
<path d="M87.4908 217.846H80.1465V225.098H87.4908V217.846Z" fill="#036EB8"/>
<path d="M87.4908 210.51H80.1465V217.846H87.4908V210.51Z" fill="#036EB8"/>
<path d="M87.4908 203.265H80.1465V210.51H87.4908V203.265Z" fill="#036EB8"/>
<path d="M87.4908 196.019H80.1465V203.264H87.4908V196.019Z" fill="#036EB8"/>
<path d="M87.4908 188.683H80.1465V196.019H87.4908V188.683Z" fill="#036EB8"/>
<path d="M87.4908 181.431H80.1465V188.683H87.4908V181.431Z" fill="#C9C7E4"/>
<path d="M87.4908 174.186H80.1465V181.43H87.4908V174.186Z" fill="#725325"/>
<path d="M87.4908 166.849H80.1465V174.186H87.4908V166.849Z" fill="#725325"/>
<path d="M87.4908 159.604H80.1465V166.849H87.4908V159.604Z" fill="#725325"/>
<path d="M87.4908 152.353H80.1465V159.604H87.4908V152.353Z" fill="#725325"/>
<path d="M87.4908 145.016H80.1465V152.352H87.4908V145.016Z" fill="#725325"/>
<path d="M87.4908 137.771H80.1465V145.016H87.4908V137.771Z" fill="#725325"/>
<path d="M87.4908 130.526H80.1465V137.771H87.4908V130.526Z" fill="#725325"/>
<path d="M87.4908 123.274H80.1465V130.526H87.4908V123.274Z" fill="#725325"/>
<path d="M87.4908 115.937H80.1465V123.274H87.4908V115.937Z" fill="#725325"/>
<path d="M87.4908 108.692H80.1465V115.937H87.4908V108.692Z" fill="#725325"/>
<path d="M87.4908 101.447H80.1465V108.692H87.4908V101.447Z" fill="#725325"/>
<path d="M87.4908 94.1038H80.1465V101.447H87.4908V94.1038Z" fill="#725325"/>
<path d="M87.4908 86.8588H80.1465V94.1038H87.4908V86.8588Z" fill="#725325"/>
<path d="M87.4908 79.6136H80.1465V86.8587H87.4908V79.6136Z" fill="#725325"/>
<path d="M87.4908 72.277H80.1465V79.6137H87.4908V72.277Z" fill="#725325"/>
<path d="M87.4908 65.0253H80.1465V72.2769H87.4908V65.0253Z" fill="#725325"/>
<path d="M87.4908 57.7802H80.1465V65.0253H87.4908V57.7802Z" fill="#725325"/>
<path d="M87.4908 50.4435H80.1465V57.7802H87.4908V50.4435Z" fill="#725325"/>
<path d="M87.4908 43.1984H80.1465V50.4434H87.4908V43.1984Z" fill="#725325"/>
<path d="M87.4908 35.9468H80.1465V43.1984H87.4908V35.9468Z" fill="#725325"/>
<path d="M87.4908 28.61H80.1465V35.9467H87.4908V28.61Z" fill="#725325"/>
<path d="M87.4908 21.365H80.1465V28.6101H87.4908V21.365Z" fill="#725325"/>
<path d="M87.4908 14.1199H80.1465V21.365H87.4908V14.1199Z" fill="#B28C42"/>
<path d="M80.1458 261.422H72.8867V268.758H80.1458V261.422Z" fill="#B28C42"/>
<path d="M80.1458 254.177H72.8867V261.422H80.1458V254.177Z" fill="#725325"/>
<path d="M80.1458 246.925H72.8867V254.176H80.1458V246.925Z" fill="#725325"/>
<path d="M80.1458 239.68H72.8867V246.925H80.1458V239.68Z" fill="#725325"/>
<path d="M80.1458 232.343H72.8867V239.68H80.1458V232.343Z" fill="#725325"/>
<path d="M80.1458 225.098H72.8867V232.342H80.1458V225.098Z" fill="#725325"/>
<path d="M80.1458 217.846H72.8867V225.098H80.1458V217.846Z" fill="#036EB8"/>
<path d="M80.1458 210.51H72.8867V217.846H80.1458V210.51Z" fill="#036EB8"/>
<path d="M80.1458 203.265H72.8867V210.51H80.1458V203.265Z" fill="#036EB8"/>
<path d="M80.1458 196.019H72.8867V203.264H80.1458V196.019Z" fill="#036EB8"/>
<path d="M80.1458 188.683H72.8867V196.019H80.1458V188.683Z" fill="#036EB8"/>
<path d="M80.1458 181.431H72.8867V188.683H80.1458V181.431Z" fill="#725325"/>
<path d="M80.1458 174.186H72.8867V181.43H80.1458V174.186Z" fill="#725325"/>
<path d="M80.1458 166.849H72.8867V174.186H80.1458V166.849Z" fill="#725325"/>
<path d="M80.1458 159.604H72.8867V166.849H80.1458V159.604Z" fill="#725325"/>
<path d="M80.1458 152.353H72.8867V159.604H80.1458V152.353Z" fill="#725325"/>
<path d="M80.1458 145.016H72.8867V152.352H80.1458V145.016Z" fill="#725325"/>
<path d="M80.1458 137.771H72.8867V145.016H80.1458V137.771Z" fill="#725325"/>
<path d="M80.1458 130.526H72.8867V137.771H80.1458V130.526Z" fill="#725325"/>
<path d="M80.1458 123.274H72.8867V130.526H80.1458V123.274Z" fill="#725325"/>
<path d="M80.1458 115.937H72.8867V123.274H80.1458V115.937Z" fill="#725325"/>
<path d="M80.1458 108.692H72.8867V115.937H80.1458V108.692Z" fill="#725325"/>
<path d="M80.1458 101.447H72.8867V108.692H80.1458V101.447Z" fill="#725325"/>
<path d="M80.1458 94.1038H72.8867V101.447H80.1458V94.1038Z" fill="#725325"/>
<path d="M80.1458 86.8588H72.8867V94.1038H80.1458V86.8588Z" fill="#725325"/>
<path d="M80.1458 79.6136H72.8867V86.8587H80.1458V79.6136Z" fill="#725325"/>
<path d="M80.1458 72.277H72.8867V79.6137H80.1458V72.277Z" fill="#725325"/>
<path d="M80.1458 65.0253H72.8867V72.2769H80.1458V65.0253Z" fill="#725325"/>
<path d="M80.1458 57.7802H72.8867V65.0253H80.1458V57.7802Z" fill="#725325"/>
<path d="M80.1458 50.4435H72.8867V57.7802H80.1458V50.4435Z" fill="#725325"/>
<path d="M80.1458 43.1984H72.8867V50.4434H80.1458V43.1984Z" fill="#725325"/>
<path d="M80.1458 35.9468H72.8867V43.1984H80.1458V35.9468Z" fill="#725325"/>
<path d="M80.1458 28.61H72.8867V35.9467H80.1458V28.61Z" fill="#725325"/>
<path d="M80.1458 21.365H72.8867V28.6101H80.1458V21.365Z" fill="#B28C42"/>
<path d="M80.1458 14.1199H72.8867V21.365H80.1458V14.1199Z" fill="#B28C42"/>
<path d="M72.8873 254.177H65.6348V261.422H72.8873V254.177Z" fill="#B28C42"/>
<path d="M72.8873 246.925H65.6348V254.176H72.8873V246.925Z" fill="#725325"/>
<path d="M72.8873 239.68H65.6348V246.925H72.8873V239.68Z" fill="#725325"/>
<path d="M72.8873 232.343H65.6348V239.68H72.8873V232.343Z" fill="#725325"/>
<path d="M72.8873 225.098H65.6348V232.342H72.8873V225.098Z" fill="#725325"/>
<path d="M72.8873 217.846H65.6348V225.098H72.8873V217.846Z" fill="#036EB8"/>
<path d="M72.8873 210.51H65.6348V217.846H72.8873V210.51Z" fill="#036EB8"/>
<path d="M72.8873 203.265H65.6348V210.51H72.8873V203.265Z" fill="#036EB8"/>
<path d="M72.8873 196.019H65.6348V203.264H72.8873V196.019Z" fill="#725325"/>
<path d="M72.8873 188.683H65.6348V196.019H72.8873V188.683Z" fill="#725325"/>
<path d="M72.8873 181.431H65.6348V188.683H72.8873V181.431Z" fill="#725325"/>
<path d="M72.8873 174.186H65.6348V181.43H72.8873V174.186Z" fill="#725325"/>
<path d="M72.8873 166.849H65.6348V174.186H72.8873V166.849Z" fill="#725325"/>
<path d="M72.8873 159.604H65.6348V166.849H72.8873V159.604Z" fill="#725325"/>
<path d="M72.8873 152.353H65.6348V159.604H72.8873V152.353Z" fill="#725325"/>
<path d="M72.8873 145.016H65.6348V152.352H72.8873V145.016Z" fill="#725325"/>
<path d="M72.8873 137.771H65.6348V145.016H72.8873V137.771Z" fill="#725325"/>
<path d="M72.8873 130.526H65.6348V137.771H72.8873V130.526Z" fill="#725325"/>
<path d="M72.8873 123.274H65.6348V130.526H72.8873V123.274Z" fill="#725325"/>
<path d="M72.8873 115.937H65.6348V123.274H72.8873V115.937Z" fill="#725325"/>
<path d="M72.8873 108.692H65.6348V115.937H72.8873V108.692Z" fill="#725325"/>
<path d="M72.8873 101.447H65.6348V108.692H72.8873V101.447Z" fill="#725325"/>
<path d="M72.8873 94.1038H65.6348V101.447H72.8873V94.1038Z" fill="#725325"/>
<path d="M72.8873 86.8588H65.6348V94.1038H72.8873V86.8588Z" fill="#725325"/>
<path d="M72.8873 79.6136H65.6348V86.8587H72.8873V79.6136Z" fill="#725325"/>
<path d="M72.8873 72.277H65.6348V79.6137H72.8873V72.277Z" fill="#725325"/>
<path d="M72.8873 65.0253H65.6348V72.2769H72.8873V65.0253Z" fill="#725325"/>
<path d="M72.8873 57.7802H65.6348V65.0253H72.8873V57.7802Z" fill="#725325"/>
<path d="M72.8873 50.4435H65.6348V57.7802H72.8873V50.4435Z" fill="#725325"/>
<path d="M72.8873 43.1984H65.6348V50.4434H72.8873V43.1984Z" fill="#725325"/>
<path d="M72.8873 35.9468H65.6348V43.1984H72.8873V35.9468Z" fill="#725325"/>
<path d="M72.8873 28.61H65.6348V35.9467H72.8873V28.61Z" fill="#B28C42"/>
<path d="M72.8873 21.365H65.6348V28.6101H72.8873V21.365Z" fill="#B28C42"/>
<path d="M65.6343 254.177H58.29V261.422H65.6343V254.177Z" fill="#B28C42"/>
<path d="M65.6343 246.925H58.29V254.176H65.6343V246.925Z" fill="#B28C42"/>
<path d="M65.6343 239.68H58.29V246.925H65.6343V239.68Z" fill="#725325"/>
<path d="M65.6343 232.343H58.29V239.68H65.6343V232.343Z" fill="#725325"/>
<path d="M65.6343 225.098H58.29V232.342H65.6343V225.098Z" fill="#725325"/>
<path d="M65.6343 217.846H58.29V225.098H65.6343V217.846Z" fill="#725325"/>
<path d="M65.6343 210.51H58.29V217.846H65.6343V210.51Z" fill="#725325"/>
<path d="M65.6343 203.265H58.29V210.51H65.6343V203.265Z" fill="#725325"/>
<path d="M65.6343 196.019H58.29V203.264H65.6343V196.019Z" fill="#725325"/>
<path d="M65.6343 188.683H58.29V196.019H65.6343V188.683Z" fill="#725325"/>
<path d="M65.6343 181.431H58.29V188.683H65.6343V181.431Z" fill="#725325"/>
<path d="M65.6343 174.186H58.29V181.43H65.6343V174.186Z" fill="#725325"/>
<path d="M65.6343 166.849H58.29V174.186H65.6343V166.849Z" fill="#725325"/>
<path d="M65.6343 159.604H58.29V166.849H65.6343V159.604Z" fill="#725325"/>
<path d="M65.6343 152.353H58.29V159.604H65.6343V152.353Z" fill="#725325"/>
<path d="M65.6343 145.016H58.29V152.352H65.6343V145.016Z" fill="#725325"/>
<path d="M65.6343 137.771H58.29V145.016H65.6343V137.771Z" fill="#725325"/>
<path d="M65.6343 130.526H58.29V137.771H65.6343V130.526Z" fill="#725325"/>
<path d="M65.6343 123.274H58.29V130.526H65.6343V123.274Z" fill="#725325"/>
<path d="M65.6343 115.937H58.29V123.274H65.6343V115.937Z" fill="#725325"/>
<path d="M65.6343 108.692H58.29V115.937H65.6343V108.692Z" fill="#725325"/>
<path d="M65.6343 101.447H58.29V108.692H65.6343V101.447Z" fill="#725325"/>
<path d="M65.6343 94.1038H58.29V101.447H65.6343V94.1038Z" fill="#725325"/>
<path d="M65.6343 86.8588H58.29V94.1038H65.6343V86.8588Z" fill="#725325"/>
<path d="M65.6343 79.6136H58.29V86.8587H65.6343V79.6136Z" fill="#725325"/>
<path d="M65.6343 72.277H58.29V79.6137H65.6343V72.277Z" fill="#725325"/>
<path d="M65.6343 65.0253H58.29V72.2769H65.6343V65.0253Z" fill="#725325"/>
<path d="M65.6343 57.7802H58.29V65.0253H65.6343V57.7802Z" fill="#725325"/>
<path d="M65.6343 50.4435H58.29V57.7802H65.6343V50.4435Z" fill="#725325"/>
<path d="M65.6343 43.1984H58.29V50.4434H65.6343V43.1984Z" fill="#725325"/>
<path d="M65.6343 35.9468H58.29V43.1984H65.6343V35.9468Z" fill="#725325"/>
<path d="M65.6343 28.61H58.29V35.9467H65.6343V28.61Z" fill="#B28C42"/>
<path d="M58.2906 246.925H51.0381V254.176H58.2906V246.925Z" fill="#B28C42"/>
<path d="M58.2906 239.68H51.0381V246.925H58.2906V239.68Z" fill="#B28C42"/>
<path d="M58.2906 232.343H51.0381V239.68H58.2906V232.343Z" fill="#725325"/>
<path d="M58.2906 225.098H51.0381V232.342H58.2906V225.098Z" fill="#725325"/>
<path d="M58.2906 217.846H51.0381V225.098H58.2906V217.846Z" fill="#725325"/>
<path d="M58.2906 210.51H51.0381V217.846H58.2906V210.51Z" fill="#725325"/>
<path d="M58.2906 203.265H51.0381V210.51H58.2906V203.265Z" fill="#725325"/>
<path d="M58.2906 196.019H51.0381V203.264H58.2906V196.019Z" fill="#725325"/>
<path d="M58.2906 188.683H51.0381V196.019H58.2906V188.683Z" fill="#725325"/>
<path d="M58.2906 181.431H51.0381V188.683H58.2906V181.431Z" fill="#725325"/>
<path d="M58.2906 174.186H51.0381V181.43H58.2906V174.186Z" fill="#725325"/>
<path d="M58.2906 166.849H51.0381V174.186H58.2906V166.849Z" fill="#725325"/>
<path d="M58.2906 159.604H51.0381V166.849H58.2906V159.604Z" fill="#725325"/>
<path d="M58.2906 152.353H51.0381V159.604H58.2906V152.353Z" fill="#725325"/>
<path d="M58.2906 145.016H51.0381V152.352H58.2906V145.016Z" fill="#725325"/>
<path d="M58.2906 137.771H51.0381V145.016H58.2906V137.771Z" fill="#725325"/>
<path d="M58.2906 130.526H51.0381V137.771H58.2906V130.526Z" fill="#725325"/>
<path d="M58.2906 123.274H51.0381V130.526H58.2906V123.274Z" fill="#725325"/>
<path d="M58.2906 115.937H51.0381V123.274H58.2906V115.937Z" fill="#725325"/>
<path d="M58.2906 108.692H51.0381V115.937H58.2906V108.692Z" fill="#725325"/>
<path d="M58.2906 101.447H51.0381V108.692H58.2906V101.447Z" fill="#725325"/>
<path d="M58.2906 94.1038H51.0381V101.447H58.2906V94.1038Z" fill="#725325"/>
<path d="M58.2906 86.8588H51.0381V94.1038H58.2906V86.8588Z" fill="#725325"/>
<path d="M58.2906 79.6136H51.0381V86.8587H58.2906V79.6136Z" fill="#725325"/>
<path d="M58.2906 72.277H51.0381V79.6137H58.2906V72.277Z" fill="#725325"/>
<path d="M58.2906 65.0253H51.0381V72.2769H58.2906V65.0253Z" fill="#725325"/>
<path d="M58.2906 57.7802H51.0381V65.0253H58.2906V57.7802Z" fill="#725325"/>
<path d="M58.2906 50.4435H51.0381V57.7802H58.2906V50.4435Z" fill="#725325"/>
<path d="M58.2906 43.1984H51.0381V50.4434H58.2906V43.1984Z" fill="#725325"/>
<path d="M58.2906 35.9468H51.0381V43.1984H58.2906V35.9468Z" fill="#B28C42"/>
<path d="M58.2906 28.61H51.0381V35.9467H58.2906V28.61Z" fill="#B28C42"/>
<path d="M51.0374 239.68H43.7783V246.925H51.0374V239.68Z" fill="#B28C42"/>
<path d="M51.0374 232.343H43.7783V239.68H51.0374V232.343Z" fill="#B28C42"/>
<path d="M51.0374 225.098H43.7783V232.342H51.0374V225.098Z" fill="#725325"/>
<path d="M51.0374 217.846H43.7783V225.098H51.0374V217.846Z" fill="#725325"/>
<path d="M51.0374 210.51H43.7783V217.846H51.0374V210.51Z" fill="#725325"/>
<path d="M51.0374 203.265H43.7783V210.51H51.0374V203.265Z" fill="#725325"/>
<path d="M51.0374 196.019H43.7783V203.264H51.0374V196.019Z" fill="#725325"/>
<path d="M51.0374 188.683H43.7783V196.019H51.0374V188.683Z" fill="#725325"/>
<path d="M51.0374 181.431H43.7783V188.683H51.0374V181.431Z" fill="#725325"/>
<path d="M51.0374 174.186H43.7783V181.43H51.0374V174.186Z" fill="#725325"/>
<path d="M51.0374 166.849H43.7783V174.186H51.0374V166.849Z" fill="#725325"/>
<path d="M51.0374 159.604H43.7783V166.849H51.0374V159.604Z" fill="#725325"/>
<path d="M51.0374 152.353H43.7783V159.604H51.0374V152.353Z" fill="#725325"/>
<path d="M51.0374 145.016H43.7783V152.352H51.0374V145.016Z" fill="#725325"/>
<path d="M51.0374 137.771H43.7783V145.016H51.0374V137.771Z" fill="#725325"/>
<path d="M51.0374 130.526H43.7783V137.771H51.0374V130.526Z" fill="#725325"/>
<path d="M51.0374 123.274H43.7783V130.526H51.0374V123.274Z" fill="#725325"/>
<path d="M51.0374 115.937H43.7783V123.274H51.0374V115.937Z" fill="#725325"/>
<path d="M51.0374 108.692H43.7783V115.937H51.0374V108.692Z" fill="#725325"/>
<path d="M51.0374 101.447H43.7783V108.692H51.0374V101.447Z" fill="#725325"/>
<path d="M51.0374 94.1038H43.7783V101.447H51.0374V94.1038Z" fill="#725325"/>
<path d="M51.0374 86.8588H43.7783V94.1038H51.0374V86.8588Z" fill="#725325"/>
<path d="M51.0374 79.6136H43.7783V86.8587H51.0374V79.6136Z" fill="#725325"/>
<path d="M51.0374 72.277H43.7783V79.6137H51.0374V72.277Z" fill="#725325"/>
<path d="M51.0374 65.0253H43.7783V72.2769H51.0374V65.0253Z" fill="#725325"/>
<path d="M51.0374 57.7802H43.7783V65.0253H51.0374V57.7802Z" fill="#725325"/>
<path d="M51.0374 50.4435H43.7783V57.7802H51.0374V50.4435Z" fill="#725325"/>
<path d="M51.0374 43.1984H43.7783V50.4434H51.0374V43.1984Z" fill="#B28C42"/>
<path d="M51.0374 35.9468H43.7783V43.1984H51.0374V35.9468Z" fill="#B28C42"/>
<path d="M43.7788 232.343H36.4346V239.68H43.7788V232.343Z" fill="#B28C42"/>
<path d="M43.7788 225.098H36.4346V232.342H43.7788V225.098Z" fill="#B28C42"/>
<path d="M43.7788 217.846H36.4346V225.098H43.7788V217.846Z" fill="#725325"/>
<path d="M43.7788 210.51H36.4346V217.846H43.7788V210.51Z" fill="#725325"/>
<path d="M43.7788 203.265H36.4346V210.51H43.7788V203.265Z" fill="#725325"/>
<path d="M43.7788 196.019H36.4346V203.264H43.7788V196.019Z" fill="#725325"/>
<path d="M43.7788 188.683H36.4346V196.019H43.7788V188.683Z" fill="#725325"/>
<path d="M43.7788 181.431H36.4346V188.683H43.7788V181.431Z" fill="#725325"/>
<path d="M43.7788 174.186H36.4346V181.43H43.7788V174.186Z" fill="#725325"/>
<path d="M43.7788 166.849H36.4346V174.186H43.7788V166.849Z" fill="#725325"/>
<path d="M43.7788 159.604H36.4346V166.849H43.7788V159.604Z" fill="#725325"/>
<path d="M43.7788 152.353H36.4346V159.604H43.7788V152.353Z" fill="#725325"/>
<path d="M43.7788 145.016H36.4346V152.352H43.7788V145.016Z" fill="#725325"/>
<path d="M43.7788 137.771H36.4346V145.016H43.7788V137.771Z" fill="#725325"/>
<path d="M43.7788 130.526H36.4346V137.771H43.7788V130.526Z" fill="#725325"/>
<path d="M43.7788 123.274H36.4346V130.526H43.7788V123.274Z" fill="#725325"/>
<path d="M43.7788 115.937H36.4346V123.274H43.7788V115.937Z" fill="#725325"/>
<path d="M43.7788 108.692H36.4346V115.937H43.7788V108.692Z" fill="#725325"/>
<path d="M43.7788 101.447H36.4346V108.692H43.7788V101.447Z" fill="#725325"/>
<path d="M43.7788 94.1038H36.4346V101.447H43.7788V94.1038Z" fill="#725325"/>
<path d="M43.7788 86.8588H36.4346V94.1038H43.7788V86.8588Z" fill="#725325"/>
<path d="M43.7788 79.6136H36.4346V86.8587H43.7788V79.6136Z" fill="#725325"/>
<path d="M43.7788 72.277H36.4346V79.6137H43.7788V72.277Z" fill="#725325"/>
<path d="M43.7788 65.0253H36.4346V72.2769H43.7788V65.0253Z" fill="#725325"/>
<path d="M43.7788 57.7802H36.4346V65.0253H43.7788V57.7802Z" fill="#725325"/>
<path d="M43.7788 50.4435H36.4346V57.7802H43.7788V50.4435Z" fill="#B28C42"/>
<path d="M43.7788 43.1984H36.4346V50.4434H43.7788V43.1984Z" fill="#B28C42"/>
<path d="M36.4342 225.098H29.1816V232.342H36.4342V225.098Z" fill="#B28C42"/>
<path d="M36.4342 217.846H29.1816V225.098H36.4342V217.846Z" fill="#B28C42"/>
<path d="M36.4342 210.51H29.1816V217.846H36.4342V210.51Z" fill="#B28C42"/>
<path d="M36.4342 203.265H29.1816V210.51H36.4342V203.265Z" fill="#725325"/>
<path d="M36.4342 196.019H29.1816V203.264H36.4342V196.019Z" fill="#725325"/>
<path d="M36.4342 188.683H29.1816V196.019H36.4342V188.683Z" fill="#725325"/>
<path d="M36.4342 181.431H29.1816V188.683H36.4342V181.431Z" fill="#725325"/>
<path d="M36.4342 174.186H29.1816V181.43H36.4342V174.186Z" fill="#725325"/>
<path d="M36.4342 166.849H29.1816V174.186H36.4342V166.849Z" fill="#725325"/>
<path d="M36.4342 159.604H29.1816V166.849H36.4342V159.604Z" fill="#725325"/>
<path d="M36.4342 152.353H29.1816V159.604H36.4342V152.353Z" fill="#725325"/>
<path d="M36.4342 145.016H29.1816V152.352H36.4342V145.016Z" fill="#725325"/>
<path d="M36.4342 137.771H29.1816V145.016H36.4342V137.771Z" fill="#725325"/>
<path d="M36.4342 130.526H29.1816V137.771H36.4342V130.526Z" fill="#725325"/>
<path d="M36.4342 123.274H29.1816V130.526H36.4342V123.274Z" fill="#725325"/>
<path d="M36.4342 115.937H29.1816V123.274H36.4342V115.937Z" fill="#725325"/>
<path d="M36.4342 108.692H29.1816V115.937H36.4342V108.692Z" fill="#725325"/>
<path d="M36.4342 101.447H29.1816V108.692H36.4342V101.447Z" fill="#725325"/>
<path d="M36.4342 94.1038H29.1816V101.447H36.4342V94.1038Z" fill="#725325"/>
<path d="M36.4342 86.8588H29.1816V94.1038H36.4342V86.8588Z" fill="#725325"/>
<path d="M36.4342 79.6136H29.1816V86.8587H36.4342V79.6136Z" fill="#725325"/>
<path d="M36.4342 72.277H29.1816V79.6137H36.4342V72.277Z" fill="#725325"/>
<path d="M36.4342 65.0253H29.1816V72.2769H36.4342V65.0253Z" fill="#B28C42"/>
<path d="M36.4342 57.7802H29.1816V65.0253H36.4342V57.7802Z" fill="#B28C42"/>
<path d="M36.4342 50.4435H29.1816V57.7802H36.4342V50.4435Z" fill="#B28C42"/>
<path d="M29.1813 210.51H21.9287V217.846H29.1813V210.51Z" fill="#B28C42"/>
<path d="M29.1813 203.265H21.9287V210.51H29.1813V203.265Z" fill="#B28C42"/>
<path d="M29.1813 196.019H21.9287V203.264H29.1813V196.019Z" fill="#725325"/>
<path d="M29.1813 188.683H21.9287V196.019H29.1813V188.683Z" fill="#725325"/>
<path d="M29.1813 181.431H21.9287V188.683H29.1813V181.431Z" fill="#725325"/>
<path d="M29.1813 174.186H21.9287V181.43H29.1813V174.186Z" fill="#725325"/>
<path d="M29.1813 166.849H21.9287V174.186H29.1813V166.849Z" fill="#725325"/>
<path d="M29.1813 159.604H21.9287V166.849H29.1813V159.604Z" fill="#725325"/>
<path d="M29.1813 152.353H21.9287V159.604H29.1813V152.353Z" fill="#725325"/>
<path d="M29.1813 145.016H21.9287V152.352H29.1813V145.016Z" fill="#725325"/>
<path d="M29.1813 137.771H21.9287V145.016H29.1813V137.771Z" fill="#725325"/>
<path d="M29.1813 130.526H21.9287V137.771H29.1813V130.526Z" fill="#725325"/>
<path d="M29.1813 123.274H21.9287V130.526H29.1813V123.274Z" fill="#725325"/>
<path d="M29.1813 115.937H21.9287V123.274H29.1813V115.937Z" fill="#725325"/>
<path d="M29.1813 108.692H21.9287V115.937H29.1813V108.692Z" fill="#725325"/>
<path d="M29.1813 101.447H21.9287V108.692H29.1813V101.447Z" fill="#725325"/>
<path d="M29.1813 94.1038H21.9287V101.447H29.1813V94.1038Z" fill="#725325"/>
<path d="M29.1813 86.8588H21.9287V94.1038H29.1813V86.8588Z" fill="#725325"/>
<path d="M29.1813 79.6136H21.9287V86.8587H29.1813V79.6136Z" fill="#725325"/>
<path d="M29.1813 72.277H21.9287V79.6137H29.1813V72.277Z" fill="#B28C42"/>
<path d="M29.1813 65.0253H21.9287V72.2769H29.1813V65.0253Z" fill="#B28C42"/>
<path d="M21.929 203.265H14.6699V210.51H21.929V203.265Z" fill="#B28C42"/>
<path d="M21.929 196.019H14.6699V203.264H21.929V196.019Z" fill="#B28C42"/>
<path d="M21.929 188.683H14.6699V196.019H21.929V188.683Z" fill="#B28C42"/>
<path d="M21.929 181.431H14.6699V188.683H21.929V181.431Z" fill="#B28C42"/>
<path d="M21.929 174.186H14.6699V181.43H21.929V174.186Z" fill="#725325"/>
<path d="M21.929 166.849H14.6699V174.186H21.929V166.849Z" fill="#725325"/>
<path d="M21.929 159.604H14.6699V166.849H21.929V159.604Z" fill="#725325"/>
<path d="M21.929 152.353H14.6699V159.604H21.929V152.353Z" fill="#725325"/>
<path d="M21.929 145.016H14.6699V152.352H21.929V145.016Z" fill="#725325"/>
<path d="M21.929 137.771H14.6699V145.016H21.929V137.771Z" fill="#725325"/>
<path d="M21.929 130.526H14.6699V137.771H21.929V130.526Z" fill="#725325"/>
<path d="M21.929 123.274H14.6699V130.526H21.929V123.274Z" fill="#725325"/>
<path d="M21.929 115.937H14.6699V123.274H21.929V115.937Z" fill="#725325"/>
<path d="M21.929 108.692H14.6699V115.937H21.929V108.692Z" fill="#725325"/>
<path d="M21.929 101.447H14.6699V108.692H21.929V101.447Z" fill="#725325"/>
<path d="M21.929 94.1038H14.6699V101.447H21.929V94.1038Z" fill="#B28C42"/>
<path d="M21.929 86.8588H14.6699V94.1038H21.929V86.8588Z" fill="#B28C42"/>
<path d="M21.929 79.6136H14.6699V86.8587H21.929V79.6136Z" fill="#B28C42"/>
<path d="M21.929 72.277H14.6699V79.6137H21.929V72.277Z" fill="#B28C42"/>
<path d="M14.6704 181.431H7.32617V188.683H14.6704V181.431Z" fill="#B28C42"/>
<path d="M14.6704 174.186H7.32617V181.43H14.6704V174.186Z" fill="#B28C42"/>
<path d="M14.6704 166.849H7.32617V174.186H14.6704V166.849Z" fill="#B28C42"/>
<path d="M14.6704 159.604H7.32617V166.849H14.6704V159.604Z" fill="#B28C42"/>
<path d="M14.6704 152.353H7.32617V159.604H14.6704V152.353Z" fill="#B28C42"/>
<path d="M14.6704 145.016H7.32617V152.352H14.6704V145.016Z" fill="#B28C42"/>
<path d="M14.6704 137.771H7.32617V145.016H14.6704V137.771Z" fill="#B28C42"/>
<path d="M14.6704 130.526H7.32617V137.771H14.6704V130.526Z" fill="#B28C42"/>
<path d="M14.6704 123.274H7.32617V130.526H14.6704V123.274Z" fill="#B28C42"/>
<path d="M14.6704 115.937H7.32617V123.274H14.6704V115.937Z" fill="#B28C42"/>
<path d="M14.6704 108.692H7.32617V115.937H14.6704V108.692Z" fill="#B28C42"/>
<path d="M14.6704 101.447H7.32617V108.692H14.6704V101.447Z" fill="#B28C42"/>
<path d="M14.6704 94.1038H7.32617V101.447H14.6704V94.1038Z" fill="#B28C42"/>
<path d="M7.3258 152.353H0.0732422V159.604H7.3258V152.353Z" fill="#B28C42"/>
<path d="M7.3258 145.016H0.0732422V152.352H7.3258V145.016Z" fill="#B28C42"/>
<path d="M7.3258 137.771H0.0732422V145.016H7.3258V137.771Z" fill="#B28C42"/>
<path d="M7.3258 130.526H0.0732422V137.771H7.3258V130.526Z" fill="#B28C42"/>
<path d="M7.3258 123.274H0.0732422V130.526H7.3258V123.274Z" fill="#B28C42"/>
</g>
<defs>
<clipPath id="clip0">
<rect width="291" height="283" fill="white"/>
</clipPath>
</defs>
</svg>
