<svg xmlns="http://www.w3.org/2000/svg" xmlns:xlink="http://www.w3.org/1999/xlink" width="312" height="225"><defs><path id="a" d="M108.708 217.023c59.827 0 108.326-48.52 108.326-108.373 0-59.854 6.832-108.374-108.326-108.374C-6.449.276.382 48.796.382 108.65c0 59.853 48.5 108.373 108.326 108.373z"/><path id="c" d="M7.246 4.68c0 2.341-1.607 3.646-3.598 3.646-1.992 0-3.599-1.305-3.599-3.645S2.061.07 3.648.07c1.587 0 3.598 2.27 3.598 4.61z"/><path id="e" d="M9.82 6.284c0 3.177-2.19 4.95-4.88 4.95-2.692 0-4.88-1.773-4.88-4.95C.06 3.107 2.78.03 4.94.03c2.159 0 4.88 3.077 4.88 6.254z"/><path id="g" d="M7.197 4.74c0 2.38-1.607 3.705-3.598 3.705C1.607 8.445 0 7.121 0 4.741S2.011.05 3.599.05c1.587 0 3.598 2.31 3.598 4.69z"/><path id="i" d="M9.77 6.454c0 3.226-2.188 5.03-4.88 5.03C2.2 11.483.01 9.68.01 6.453.01 3.227 2.73.09 4.89.09c2.16 0 4.88 3.127 4.88 6.364z"/><path id="k" d="M7.256 4.7c0 2.381-1.607 3.706-3.598 3.706C1.666 8.406.059 7.08.059 4.7S2.07.01 3.658.01c1.587 0 3.598 2.31 3.598 4.69z"/><path id="m" d="M9.83 6.404c0 3.227-2.19 5.03-4.88 5.03-2.692 0-4.881-1.803-4.881-5.03C.069 3.177 2.79.04 4.949.04c2.16 0 4.88 3.137 4.88 6.364z"/><ellipse id="o" cx="109.241" cy="108.881" rx="108.403" ry="108.374"/><path id="q" d="M64.712 63.118c-34.977 1.597-55.66 2.41-62.05 2.437-2.349.01-7.53 3.131-10.93 3.536-3.398.404-7.032-.748-9.143-5.397-4.364-1.214-6.044-3.242-7.041-4.937-1.209-2.053-1.862-5.918-.567-7.85-.971-1.71-1.214-4.531.567-8.173 1.78-3.642 3.486-3.56 7.041-4.37 1.949-3.356 5.178-5.746 9.144-5.34 3.966.404 7.413 3.744 10.326 3.757 6.336.027 28.48-3.387 66.43-10.243l-3.777 36.58z"/><ellipse id="r" cx="109.241" cy="108.881" rx="108.403" ry="108.374"/><path id="t" d="M63.39 61.858C29.127 63.424 8.866 64.22 2.607 64.247c-2.3.01-7.376 3.069-10.706 3.465-3.33.397-6.89-.733-8.957-5.29-4.275-1.189-5.92-3.177-6.897-4.837-1.184-2.013-1.824-5.8-.555-7.693-.952-1.676-1.19-4.442.555-8.01 1.744-3.57 3.415-3.49 6.897-4.283 1.91-3.29 5.072-5.631 8.957-5.235 3.885.397 7.262 3.67 10.116 3.683 6.206.027 27.897-3.32 65.073-10.039l-3.7 35.85z"/><path id="u" d="M1.602 31.977c.54 0-.57.481.96-.602.05-.278 7.583-.305 7.435-.524-.444-.658-3.243-1.772-6.63-1.041.397-1.969 1.596-3.898 1.81-4.343-1.553.686-3.323 4.386-3.575 6.51z"/><path id="v" d="M.05 25.608c.294-1.17 1.206-3.86 4.562-6.707 1.553-6.648 7.878-11.834 8.846-11.725-1.552 1.18-6.77 4.975-7.661 12.045-1.628 1.425-2.979 3.063-3.603 5.719 0 0-1.518-.148-2.143.668z"/></defs><path fill="#fff" d="M0 0h312v225H0z"/><g fill="none" fill-rule="evenodd"><g transform="translate(0 -35)"><ellipse cx="157.986" cy="148.028" fill="#FAE8CA" rx="108.403" ry="108.374"/><g transform="translate(49.404 40.31)"><mask id="b" fill="#fff"><use xlink:href="#a"/></mask><g fill="#E9CBA3" mask="url(#b)"><path d="M3.362 173.127L-2 179.85a3.138 3.138 0 0 0 2.453 5.094h214.174a3.138 3.138 0 0 0 2.35-5.217l-5.843-6.601H3.362z"/></g><g mask="url(#b)"><path fill="#CEB19E" d="M1.266 169.994l2.16 5.964a4.482 4.482 0 0 0 4.214 2.956h201.017a4.482 4.482 0 0 0 4.29-3.183l1.738-5.737"/><path fill="#FFFCF9" d="M4.094 172.647c-.899 0-1.769-.4-2.46-1.132-1.639-1.733-1.865-4.832-.506-6.922l20.852-32.061c1.57-2.412 3.899-3.808 6.356-3.808h158.742c2.417 0 4.712 1.35 6.28 3.694l21.5 32.122c.595.89.923 2.022.923 3.192 0 2.715-1.726 4.915-3.854 4.915H4.094z"/></g><g fill="#E6DACE" fill-rule="nonzero" mask="url(#b)"><path d="M208.993 165.244l-19.573-33.62a2.69 2.69 0 0 0-2.325-1.336H27.828a2.69 2.69 0 0 0-2.347 1.376L7.08 164.554a1.793 1.793 0 0 0 1.558 2.667l198.8.718a1.793 1.793 0 0 0 1.556-2.695zm-204.9 7.403c-.898 0-1.768-.4-2.46-1.132-1.638-1.733-1.864-4.832-.505-6.922l20.852-32.061c1.57-2.412 3.899-3.808 6.356-3.808h158.742c2.417 0 4.712 1.35 6.28 3.694l21.5 32.122c.595.89.923 2.022.923 3.192 0 2.715-1.726 4.915-3.854 4.915H4.094z"/></g><g mask="url(#b)"><path fill="#353541" d="M27.643 21.335H186.59a6.723 6.723 0 0 1 6.723 6.84l-1.663 96.419a5.379 5.379 0 0 1-5.378 5.286H28.202a5.379 5.379 0 0 1-5.378-5.273L20.92 28.191a6.723 6.723 0 0 1 6.722-6.856z"/><path stroke="#353541" stroke-width="1.494" d="M4.094 171.9h207.833c1.67 0 3.106-1.832 3.106-4.168 0-1.026-.285-2.012-.796-2.776l-21.5-32.122c-1.435-2.146-3.504-3.363-5.659-3.363H28.336c-2.192 0-4.292 1.259-5.73 3.468L1.755 165.001c-1.173 1.804-.975 4.522.422 6 .555.588 1.232.9 1.918.9z"/><path stroke="#353541" stroke-linecap="round" stroke-width="1.494" d="M1.18 170.472l1.412 5.606a4.482 4.482 0 0 0 4.347 3.387h202.408a4.482 4.482 0 0 0 4.399-3.62l1.054-5.373"/><path stroke="#353541" stroke-linecap="round" stroke-width="1.494" d="M95.84 172.031v.527a1.793 1.793 0 0 0 1.793 1.789h16.793c.97 0 1.763-.77 1.792-1.739l.02-.652"/></g><g mask="url(#b)"><path stroke="#DFDFDF" stroke-width="1.345" d="M28.53 23.408l-.103.001a5.155 5.155 0 0 0-5.051 5.256l1.876 94.544a4.706 4.706 0 0 0 4.706 4.613h154.674a4.706 4.706 0 0 0 4.705-4.625l1.64-94.545v-.089a5.155 5.155 0 0 0-5.154-5.155H28.529z"/><path fill="#353541" d="M41.678 129.545H169.78a.9.9 0 0 1 .81.51l.974 2.046a.896.896 0 0 1-.81 1.282H40.704a.896.896 0 0 1-.81-1.282l.975-2.045a.896.896 0 0 1 .809-.511z"/><path fill="#E7DFD7" d="M29.762 151.916l6.461-11.073a5.379 5.379 0 0 1 4.646-2.668h130.548c1.64 0 3.15.896 3.935 2.336l6.246 11.45a1.793 1.793 0 0 1-1.574 2.651H31.31a1.793 1.793 0 0 1-1.548-2.696z"/></g></g><path fill="#FFF" d="M77.726 68.78h157.792l-1.483 94.274H79.217z"/><g opacity=".07" transform="translate(83.99 75.808)"><path stroke="#4C4C4C" stroke-linecap="round" stroke-linejoin="round" stroke-width=".604" d="M6.803 4.472L9.672 7.37m.394-6.195l2.87 2.898M5.422 5.866l2.87 2.898m-6.162.428l2.869 2.899"/><path stroke="#4C4C4C" stroke-linecap="round" stroke-linejoin="round" stroke-width="1.108" d="M13.428 3.804C10.963 5.747 8.43 2.56 5.965 5.05s1.025 5.308-1.558 7.917"/><path stroke="#4C4C4C" stroke-linecap="round" stroke-linejoin="round" stroke-width="1.108" d="M1.272 9.79c2.583-2.61 5.255 1.036 7.838-1.574 2.415-2.44-.582-4.95 1.134-7.4"/><path stroke="#4C4C4C" stroke-linecap="round" stroke-linejoin="round" stroke-width=".599" d="M65.533 48.492l2.88 2.848m.384-6.095l2.878 2.858m-7.522 1.753l2.879 2.859m-6.172.418l2.879 2.858"/><path stroke="#4C4C4C" stroke-linecap="round" stroke-linejoin="round" stroke-width="1.098" d="M72.168 47.835c-2.464 1.902-4.998-1.225-7.463 1.225s1.025 5.218-1.558 7.778"/><path stroke="#4C4C4C" stroke-linecap="round" stroke-linejoin="round" stroke-width="1.098" d="M60.012 53.72c2.583-2.569 5.255 1.016 7.838-1.553 2.416-2.4-.582-4.87 1.134-7.28"/><path stroke="#4C4C4C" stroke-linecap="round" stroke-linejoin="round" stroke-width=".599" d="M110.461 69.944l2.879 2.859m.384-6.096l2.88 2.849m-7.524 1.763l2.88 2.848m-6.172.418l2.879 2.859"/><path stroke="#4C4C4C" stroke-linecap="round" stroke-linejoin="round" stroke-width="1.098" d="M117.096 69.287c-2.465 1.902-4.998-1.225-7.463 1.225s1.025 5.219-1.558 7.778"/><path stroke="#4C4C4C" stroke-linecap="round" stroke-linejoin="round" stroke-width="1.098" d="M104.94 75.173c2.583-2.57 5.255 1.016 7.838-1.554 2.415-2.4-.582-4.87 1.134-7.28"/><path stroke="#4C4C4C" stroke-linecap="round" stroke-linejoin="round" stroke-width=".599" d="M136.4 28.643l2.83-2.908m-6.044-.389l2.83-2.908m1.735 7.599l2.83-2.908m.414 6.235l2.83-2.908"/><path stroke="#4C4C4C" stroke-linecap="round" stroke-linejoin="round" stroke-width="1.098" d="M135.75 21.94c1.883 2.49-1.213 5.05 1.212 7.54 2.426 2.49 5.166-1.036 7.7 1.573"/><path stroke="#4C4C4C" stroke-linecap="round" stroke-linejoin="round" stroke-width="1.098" d="M141.576 34.22c-2.543-2.61 1.006-5.308-1.538-7.917-2.376-2.44-4.82.587-7.207-1.146"/><path fill="#4C4C4C" fill-rule="nonzero" d="M37.08 6.842c-1.903.299-2.968 3.595-2.297 4.322.236.25.73.25.759.24.513-.01.71-.38 1.577-.728.192-.088.394-.151.602-.189.73-.09 1.055.369 1.912.478.355.05.908.12 1.075-.11.493-.657-1.479-4.352-3.628-4.013zm-2.15-.986c.395.757.247 1.604-.315 1.892-.562.29-1.34-.09-1.735-.846-.394-.757-.246-1.604.315-1.892.562-.29 1.341.09 1.736.846zm2.258-2.4c.306 1.056.02 2.061-.64 2.25-.661.19-1.43-.517-1.736-1.583-.305-1.065-.02-2.061.641-2.25.66-.19 1.44.527 1.735 1.583zm2.899.488c-.237.976-.927 1.653-1.538 1.504-.611-.15-.907-1.066-.66-2.042.246-.976.926-1.653 1.537-1.504.612.15.898 1.056.661 2.042zm2.07 2.948c-.345.916-1.124 1.474-1.735 1.245-.611-.23-.818-1.156-.473-2.072.345-.916 1.124-1.474 1.735-1.245.611.23.818 1.156.473 2.072zm7.168 65.432c-1.923-.02-3.53 3.058-2.987 3.885.187.288.68.358.7.368.512.07.769-.259 1.676-.448a2.51 2.51 0 0 1 .63-.09c.74.03.977.538 1.815.787.335.1.867.269 1.084.07.582-.578-.75-4.552-2.918-4.572zM47.373 71c.256.807-.02 1.623-.631 1.812-.611.19-1.311-.308-1.568-1.125-.256-.817.02-1.623.631-1.813.612-.189 1.302.32 1.568 1.126zm2.622-1.992c.119 1.096-.325 2.042-1.005 2.111-.68.07-1.331-.747-1.45-1.842-.118-1.096.326-2.042 1.006-2.111.68-.07 1.331.746 1.45 1.842zm2.781.946c-.405.926-1.193 1.484-1.765 1.235-.572-.249-.72-1.195-.316-2.121.405-.926 1.193-1.484 1.765-1.235.572.249.71 1.195.316 2.121zm1.538 3.256c-.493.847-1.351 1.276-1.923.947-.572-.329-.621-1.275-.118-2.121.503-.847 1.35-1.275 1.922-.946.572.328.621 1.274.119 2.12zm71.527-22.338c-1.922-.02-3.53 3.058-2.987 3.884.187.29.68.359.7.369.513.07.769-.26 1.676-.448a2.51 2.51 0 0 1 .63-.09c.74.03.977.538 1.815.787.335.1.868.269 1.084.07.592-.588-.749-4.552-2.918-4.572zm-1.951-1.324c.255.806-.02 1.623-.632 1.812-.611.19-1.311-.309-1.567-1.125-.257-.817.02-1.624.63-1.813.612-.19 1.302.309 1.568 1.126zm2.631-2.002c.119 1.095-.325 2.041-1.005 2.111-.68.07-1.331-.747-1.45-1.842-.118-1.096.326-2.042 1.006-2.112.68-.07 1.321.757 1.45 1.843zm2.771.956c-.404.926-1.193 1.484-1.765 1.235-.572-.25-.72-1.195-.315-2.122.404-.926 1.193-1.484 1.764-1.235.572.25.71 1.196.316 2.122zm1.548 3.257c-.493.846-1.35 1.274-1.923.946-.572-.329-.62-1.275-.118-2.122.503-.846 1.35-1.274 1.922-.946.572.329.612 1.275.119 2.122z"/><path stroke="#4C4C4C" stroke-linecap="round" stroke-linejoin="round" stroke-width="1.084" d="M.04 47.954l1.36 1.364m0-1.364L.04 49.318"/><path stroke="#4C4C4C" stroke-linecap="round" stroke-linejoin="round" stroke-width="1.108" d="M1.203 53.013c.66-.537 1.33.3 1.991-.249.66-.547-.01-1.374.651-1.922.66-.548 1.331.299 1.992-.249.66-.547-.01-1.374.65-1.922.66-.548 1.331.299 1.992-.249.66-.548-.01-1.374.66-1.922"/><ellipse cx="10.855" cy="52.655" stroke="#4C4C4C" stroke-linecap="round" stroke-linejoin="round" stroke-width="1.192" rx="1.617" ry="1.633"/><path fill="#4C4C4C" fill-rule="nonzero" d="M70.453 6.244a.271.271 0 0 1-.099.379l-3.628 2.022a.274.274 0 0 1-.266 0l-3.618-2.022a.268.268 0 0 1-.099-.379L66.371.31a.275.275 0 0 1 .464 0l3.618 5.935z"/><path fill="#4C4C4C" fill-rule="nonzero" d="M69.516 8.376a.264.264 0 0 1 .337.045.27.27 0 0 1 .018.343l-3.046 4.193a.275.275 0 0 1-.444 0l-3.046-4.193a.271.271 0 0 1 .018-.343.264.264 0 0 1 .337-.045l2.78 1.573a.274.274 0 0 0 .266 0l2.78-1.573zm74.249 62.923a.271.271 0 0 1-.099.378l-3.628 2.022a.274.274 0 0 1-.266 0l-3.618-2.032a.268.268 0 0 1-.099-.378l3.628-5.936a.275.275 0 0 1 .464 0l3.618 5.946z"/><path fill="#4C4C4C" fill-rule="nonzero" d="M142.819 73.42a.264.264 0 0 1 .337.045c.086.095.094.24.017.343l-3.046 4.193a.275.275 0 0 1-.444 0l-3.046-4.193a.271.271 0 0 1 .018-.343.264.264 0 0 1 .337-.045l2.78 1.574a.274.274 0 0 0 .266 0l2.78-1.574zM41.014 50.235a.271.271 0 0 1-.099.378l-3.628 2.022a.274.274 0 0 1-.266 0l-3.628-2.022a.268.268 0 0 1-.099-.378l3.628-5.936a.275.275 0 0 1 .464 0l3.628 5.936z"/><path fill="#4C4C4C" fill-rule="nonzero" d="M40.067 52.366a.264.264 0 0 1 .337.045.27.27 0 0 1 .018.343l-3.046 4.193a.275.275 0 0 1-.444 0l-3.046-4.193a.271.271 0 0 1 .018-.343.264.264 0 0 1 .337-.045l2.78 1.574a.274.274 0 0 0 .266 0l2.78-1.574zM103.865 7.37c0 2.34-1.607 3.645-3.598 3.645-1.992 0-3.599-1.305-3.599-3.645s2.011-4.611 3.599-4.611c1.587 0 3.598 2.27 3.598 4.61z"/><g transform="translate(96.619 2.689)"><mask id="d" fill="#fff"><use xlink:href="#c"/></mask><g fill="#FFF" fill-rule="nonzero" mask="url(#d)"><path d="M5.738.2c-1.942.557-2.376.826-2.346.965.03.14.6.2.936.18A2.523 2.523 0 0 0 5.945.578m1.124 1.274c-1.35-.04-2.09.359-2.435.598-.119.08-.395.269-.355.378.04.11.907.03 1.42-.07a15.537 15.537 0 0 0 1.971-.487m-.108 1.255C6.24 4.063 5.62 4.58 5.324 4.89c-.118.12-.355.378-.286.508s.168.12.621.04c.454-.08 1.252-.299 2.465-.966M7.562 7.49c-.483-.38-1.36-.927-2.347-.857-.236.02-.62.05-.778.309-.158.259.069.747.157.906.434.777 1.351 1.006 1.686 1.076M2.346 5.129c1.49-.17 1.913-.378 1.933-.578.02-.199-.138-.229-.316-.348a2.056 2.056 0 0 0-1.242-.379"/></g></g><path stroke="#4C4C4C" stroke-width=".639" d="M103.865 7.37c0 2.34-1.607 3.645-3.598 3.645-1.992 0-3.599-1.305-3.599-3.645s2.011-4.611 3.599-4.611c1.587 0 3.598 2.27 3.598 4.61z"/><path fill="#FFF" fill-rule="nonzero" stroke="#FFF" stroke-width="1.598" d="M99.537 7.28c0 3.177-2.189 4.95-4.88 4.95-2.692 0-4.88-1.773-4.88-4.95 0-3.177 2.72-6.254 4.88-6.254 2.16 0 4.88 3.077 4.88 6.254z"/><path fill="#4C4C4C" fill-rule="nonzero" d="M99.537 7.28c0 3.177-2.189 4.95-4.88 4.95-2.692 0-4.88-1.773-4.88-4.95 0-3.177 2.72-6.254 4.88-6.254 2.16 0 4.88 3.077 4.88 6.254z"/><g transform="translate(89.718 .996)"><mask id="f" fill="#fff"><use xlink:href="#e"/></mask><g fill="#FFF" fill-rule="nonzero" mask="url(#f)"><g transform="translate(-.69 -.697)"><ellipse cx="3.806" cy="1.773" rx="1" ry="1.036"/><path d="M8.873 6.075c.07.638-.305 1.205-.848 1.265C7.483 7.4 7 6.922 6.931 6.284c-.07-.637.306-1.205.848-1.265.542-.06 1.025.419 1.094 1.056zM.868 10.846c1.193-.847 2.1-.956 2.75-.837.868.16 1.035.677 1.795.657 1.035-.03 1.193-1.005 2.464-1.274.661-.14 1.706-.11 2.15.508.443.617.138 1.772-.267 2.31-1.626 2.221-7.808.02-8.163-.11M.976 2.699c.07.02 2.445 1.763 2.327 3.486C3.184 7.908 2.02 7.22 2.02 7.22S.75 6.573.09 4.302M9.958.15c.01.07-.562 2.947-2.18 3.575-1.616.627-1.488-.717-1.488-.717S6.33 1.603 8.114.03"/><ellipse cx="4.87" cy="4.681" rx="1" ry="1"/><ellipse cx="5.334" cy="8.097" rx="1" ry="1"/></g></g></g><path stroke="#4C4C4C" stroke-width=".639" d="M99.537 7.28c0 3.177-2.189 4.95-4.88 4.95-2.692 0-4.88-1.773-4.88-4.95 0-3.177 2.72-6.254 4.88-6.254 2.16 0 4.88 3.077 4.88 6.254z"/><path fill="#4C4C4C" fill-rule="nonzero" d="M24.55 28.643c0 2.38-1.608 3.705-3.6 3.705-1.991 0-3.598-1.325-3.598-3.705s2.011-4.69 3.599-4.69c1.587 0 3.598 2.31 3.598 4.69z"/><g transform="translate(17.352 23.902)"><mask id="h" fill="#fff"><use xlink:href="#g"/></mask><g fill="#FFF" fill-rule="nonzero" mask="url(#h)"><path d="M5.689.19c-1.943.567-2.376.836-2.347.985.03.15.602.2.927.18.868-.05 1.44-.598 1.617-.787M7.02 1.872c-1.351-.04-2.09.369-2.436.608-.118.09-.394.269-.354.378.039.11.907.03 1.42-.07a15.32 15.32 0 0 0 1.971-.487m-.108 1.274C6.19 4.123 5.57 4.651 5.275 4.97c-.119.12-.355.378-.286.518.069.139.167.129.62.05.454-.08 1.253-.3 2.466-.987m-.562 3.058c-.483-.379-1.36-.946-2.357-.877-.236.02-.62.05-.779.31-.157.258.07.756.158.915.434.787 1.35 1.026 1.686 1.096M2.297 5.209c1.489-.17 1.913-.389 1.933-.578.02-.19-.138-.229-.316-.358a2.036 2.036 0 0 0-1.242-.379"/></g></g><path stroke="#4C4C4C" stroke-width=".644" d="M24.55 28.643c0 2.38-1.608 3.705-3.6 3.705-1.991 0-3.598-1.325-3.598-3.705s2.011-4.69 3.599-4.69c1.587 0 3.598 2.31 3.598 4.69z"/><path fill="#FFF" fill-rule="nonzero" stroke="#FFF" stroke-width="1.611" d="M20.221 28.563c0 3.227-2.189 5.03-4.88 5.03-2.692 0-4.88-1.803-4.88-5.03 0-3.227 2.72-6.364 4.88-6.364 2.159 0 4.88 3.128 4.88 6.364z"/><path fill="#4C4C4C" fill-rule="nonzero" d="M20.221 28.563c0 3.227-2.189 5.03-4.88 5.03-2.692 0-4.88-1.803-4.88-5.03 0-3.227 2.72-6.364 4.88-6.364 2.159 0 4.88 3.128 4.88 6.364z"/><g transform="translate(10.45 22.11)"><mask id="j" fill="#fff"><use xlink:href="#i"/></mask><g fill="#FFF" fill-rule="nonzero" mask="url(#j)"><g transform="translate(-.69 -.697)"><ellipse cx="3.756" cy="1.852" rx="1" ry="1.056"/><ellipse cx="7.881" cy="6.317" rx="1" ry="1.185" transform="rotate(-6.2 7.88 6.317)"/><path d="M.818 11.085c1.193-.867 2.1-.976 2.751-.857.868.17 1.035.697 1.794.677 1.036-.03 1.193-1.025 2.465-1.304.66-.14 1.706-.11 2.15.518.443.627.137 1.802-.267 2.35-1.627 2.25-7.808.02-8.163-.11m-.621-9.57c.069.02 2.445 1.792 2.326 3.545C3.135 8.087 1.972 7.39 1.972 7.39S.71 6.742.039 4.432M9.908.2c.01.069-.562 2.997-2.178 3.634-1.617.638-1.49-.727-1.49-.727S6.28 1.673 8.066.08"/><ellipse cx="4.821" cy="4.8" rx="1" ry="1"/><ellipse cx="5.284" cy="8.286" rx="1" ry="1"/></g></g></g><path stroke="#4C4C4C" stroke-width=".644" d="M20.221 28.563c0 3.227-2.189 5.03-4.88 5.03-2.692 0-4.88-1.803-4.88-5.03 0-3.227 2.72-6.364 4.88-6.364 2.159 0 4.88 3.128 4.88 6.364z"/><path fill="#4C4C4C" fill-rule="nonzero" d="M88.495 72.822c0 2.38-1.607 3.705-3.599 3.705-1.991 0-3.598-1.324-3.598-3.705 0-2.38 2.011-4.69 3.598-4.69 1.588 0 3.599 2.31 3.599 4.69z"/><g transform="translate(81.239 68.122)"><mask id="l" fill="#fff"><use xlink:href="#k"/></mask><g fill="#FFF" fill-rule="nonzero" mask="url(#l)"><path d="M5.748.14c-1.942.567-2.376.836-2.356.985.02.15.6.2.926.18.868-.05 1.44-.598 1.617-.787m1.144 1.305c-1.35-.04-2.09.368-2.435.607-.119.09-.395.269-.355.379.04.11.907.03 1.42-.07A15.32 15.32 0 0 0 7.68 2.25m-.108 1.276C6.25 4.073 5.63 4.6 5.334 4.92c-.119.12-.355.378-.286.518s.167.13.621.05c.453-.08 1.252-.3 2.465-.986M7.572 7.56c-.483-.38-1.36-.947-2.357-.877-.236.02-.62.05-.778.308-.158.26.069.757.157.917.434.786 1.351 1.025 1.686 1.095M2.356 5.159c1.489-.17 1.913-.388 1.933-.588.02-.199-.138-.229-.306-.358a2.036 2.036 0 0 0-1.242-.379"/></g></g><path stroke="#4C4C4C" stroke-width=".644" d="M88.495 72.822c0 2.38-1.607 3.705-3.599 3.705-1.991 0-3.598-1.324-3.598-3.705 0-2.38 2.011-4.69 3.598-4.69 1.588 0 3.599 2.31 3.599 4.69z"/><path fill="#FFF" fill-rule="nonzero" stroke="#FFF" stroke-width="1.611" d="M84.167 72.733c0 3.227-2.189 5.03-4.88 5.03-2.692 0-4.88-1.803-4.88-5.03 0-3.227 2.72-6.364 4.88-6.364 2.159 0 4.88 3.137 4.88 6.364z"/><path fill="#4C4C4C" fill-rule="nonzero" d="M84.167 72.733c0 3.227-2.189 5.03-4.88 5.03-2.692 0-4.88-1.803-4.88-5.03 0-3.227 2.72-6.364 4.88-6.364 2.159 0 4.88 3.137 4.88 6.364z"/><g transform="translate(74.337 66.329)"><mask id="n" fill="#fff"><use xlink:href="#m"/></mask><g fill="#FFF" fill-rule="nonzero" mask="url(#n)"><g transform="translate(-.592 -.697)"><ellipse cx="3.717" cy="1.803" rx="1" ry="1.056"/><ellipse cx="7.861" cy="6.204" rx="1" ry="1.185" transform="rotate(-6.2 7.861 6.204)"/><path d="M.779 11.035c1.193-.867 2.1-.976 2.75-.847.868.17 1.036.698 1.795.678 1.035-.03 1.193-1.026 2.465-1.295.66-.14 1.705-.11 2.149.518.444.627.138 1.802-.266 2.35-1.627 2.251-7.809.02-8.164-.11m-.621-9.59c.07.02 2.445 1.792 2.327 3.545C3.096 8.037 1.932 7.34 1.932 7.34S.661 6.683 0 4.382M9.869.15c.01.07-.562 2.997-2.179 3.635-1.617.637-1.489-.727-1.489-.727S6.241 1.623 8.025.03"/><ellipse cx="4.782" cy="4.761" rx="1" ry="1"/><ellipse cx="5.245" cy="8.236" rx="1" ry="1"/></g></g></g><path stroke="#4C4C4C" stroke-width=".644" d="M84.167 72.733c0 3.227-2.189 5.03-4.88 5.03-2.692 0-4.88-1.803-4.88-5.03 0-3.227 2.72-6.364 4.88-6.364 2.159 0 4.88 3.137 4.88 6.364z"/><path fill="#4C4C4C" fill-rule="nonzero" d="M131.58 6.942a2.43 2.43 0 0 1-.366 2.22l-3.194 3.994a.186.186 0 0 1-.246.05l-4.536-2.33h-.01a2.436 2.436 0 0 1-1.26-2.403 2.423 2.423 0 0 1 1.734-2.08 2.47 2.47 0 0 1 3.066 1.584 2.454 2.454 0 0 1 2.14-2.699 2.473 2.473 0 0 1 2.671 1.664zM120.448 2.61c.184.26.229.596.119.896l-.76 1.892a.07.07 0 0 1-.033.044.068.068 0 0 1-.055.006l-2.012-.379a.977.977 0 0 1-.68-.528.99.99 0 0 1 1.706-.986.985.985 0 0 1-.009-.75.971.971 0 0 1 .521-.534 1 1 0 0 1 1.203.338zm5.788.169a.802.802 0 0 1-.237.707l-1.252 1.145a.059.059 0 0 1-.089 0l-1.36-.996a.81.81 0 0 1-.316-.637c0-.432.328-.792.754-.826a.82.82 0 0 1 .873.696.823.823 0 0 1 .773-.791.82.82 0 0 1 .854.702zm3.46-1.803a.597.597 0 0 1-.315.458l-1.134.548a.049.049 0 0 1-.06-.01l-.749-.996a.592.592 0 0 1-.088-.518.61.61 0 0 1 .67-.418.606.606 0 0 1 .513.677.61.61 0 0 1 .769-.368c.257.094.42.352.394.627z"/><path stroke="#4C4C4C" stroke-linecap="round" stroke-linejoin="round" stroke-width="1.075" d="M73.736 32.726l1.35-1.344m-1.35 0l1.35 1.344"/><path stroke="#4C4C4C" stroke-linecap="round" stroke-linejoin="round" stroke-width="1.098" d="M82.61 30.117c-.79-.319-.405-1.305-1.194-1.623-.789-.32-1.183.677-1.972.358-.788-.319-.404-1.305-1.193-1.623-.788-.319-1.183.677-1.971.358-.79-.318-.405-1.304-1.193-1.623-.789-.319-1.183.677-1.972.358"/><ellipse cx="85.498" cy="24.669" stroke="#4C4C4C" stroke-linecap="round" stroke-linejoin="round" stroke-width="1.182" rx="1.617" ry="1.613"/><path fill="#4C4C4C" fill-rule="nonzero" d="M113.212 27.518a.271.271 0 0 1-.099.378l-3.628 2.022a.274.274 0 0 1-.266 0l-3.618-2.032a.268.268 0 0 1-.1-.378l3.63-5.936a.275.275 0 0 1 .462 0l3.619 5.946z"/><path fill="#4C4C4C" fill-rule="nonzero" d="M112.275 29.649a.264.264 0 0 1 .337.045.27.27 0 0 1 .018.343l-3.046 4.193a.275.275 0 0 1-.444 0l-3.047-4.193a.271.271 0 0 1 .018-.343.264.264 0 0 1 .337-.045l2.78 1.573a.274.274 0 0 0 .267 0l2.78-1.573zm-9.612 21.273a2.43 2.43 0 0 1-.365 2.22l-3.195 3.995a.186.186 0 0 1-.246.05l-4.525-2.341h-.01a2.436 2.436 0 0 1-1.26-2.402 2.423 2.423 0 0 1 1.733-2.08 2.47 2.47 0 0 1 3.066 1.584c-.138-1.34.815-2.543 2.14-2.7a2.473 2.473 0 0 1 2.662 1.674zM91.532 46.59c.184.26.228.596.118.896l-.76 1.892a.07.07 0 0 1-.033.045.068.068 0 0 1-.055.005l-2.011-.378a.977.977 0 0 1-.68-.528.99.99 0 0 1 1.706-.986.985.985 0 0 1-.01-.75.971.971 0 0 1 .522-.535 1 1 0 0 1 1.203.339zm5.787.169a.802.802 0 0 1-.237.707l-1.252 1.145a.059.059 0 0 1-.089 0l-1.36-.996a.81.81 0 0 1-.316-.637c0-.432.328-.792.754-.826a.82.82 0 0 1 .873.697.823.823 0 0 1 .773-.792.82.82 0 0 1 .854.702zm3.471-1.803a.597.597 0 0 1-.316.458l-1.134.548a.049.049 0 0 1-.06-.01l-.748-.996a.592.592 0 0 1-.09-.518.61.61 0 0 1 .671-.418.606.606 0 0 1 .513.677.61.61 0 0 1 .769-.368c.257.094.42.352.394.627zM44.553 28.404a2.43 2.43 0 0 0 .365 2.22l3.194 3.995c.058.078.164.1.247.05l4.535-2.341h.01a2.447 2.447 0 0 0 1.24-2.404 2.434 2.434 0 0 0-1.723-2.078 2.47 2.47 0 0 0-3.066 1.584c.138-1.34-.816-2.543-2.14-2.7a2.473 2.473 0 0 0-2.662 1.674zm-2.751-6.045c.012.32.177.614.444.786l1.745 1.076a.08.08 0 0 0 .099-.01l1.38-1.494a.97.97 0 0 0 .227-.826.988.988 0 0 0-1.016-.797.982.982 0 0 0-.936 1.016.985.985 0 0 0-1.943.249zm6.162 1.195a.804.804 0 0 0 .03.747l.887 1.434a.06.06 0 0 0 .08.03l1.586-.588a.806.806 0 0 0 .507-.74.807.807 0 0 0-.487-.754.825.825 0 0 0-1.074.399.814.814 0 0 0-.095-.613.8.8 0 0 0-.497-.363.826.826 0 0 0-.937.448zm5.058-.777a.602.602 0 0 0-.148.538l.306 1.215a.05.05 0 0 0 .05.04l1.251-.06a.61.61 0 0 0 .454-.27.602.602 0 0 0-.099-.786.607.607 0 0 0-.848.04.601.601 0 0 0-.197-.817.607.607 0 0 0-.769.1zM24.243 72.384a2.5 2.5 0 0 1-.364 2.261l-3.195 4.063a.186.186 0 0 1-.246.05l-4.535-2.37h-.01a2.5 2.5 0 0 1-1.19-2.752A2.471 2.471 0 0 1 17 71.73a2.466 2.466 0 0 1 2.443 1.71 2.488 2.488 0 0 1 1.918-2.766 2.462 2.462 0 0 1 2.883 1.71zm-11.13-4.402c.182.265.226.603.118.907l-.76 1.932a.07.07 0 0 1-.033.044.068.068 0 0 1-.055.005l-2.011-.388a.993.993 0 0 1-.766-.916.996.996 0 0 1 .661-.996.98.98 0 0 1 1.13.368 1 1 0 0 1 .435-1.251.98.98 0 0 1 1.28.295zm5.787.17a.832.832 0 0 1-.237.717l-1.252 1.165a.059.059 0 0 1-.089 0l-1.35-1.006a.832.832 0 0 1-.254-.964.817.817 0 0 1 .849-.509.822.822 0 0 1 .716.686.822.822 0 0 1 .77-.75.82.82 0 0 1 .847.66zm3.47-1.833a.607.607 0 0 1-.315.458l-1.134.558a.049.049 0 0 1-.06-.02l-.748-1.016a.612.612 0 0 1 .02-.735.597.597 0 0 1 .708-.176.609.609 0 0 1 .356.642.603.603 0 1 1 1.173.289z"/></g><path fill="#FFF" d="M77.558 68.78h158.038l-1.646 94.274h-2.5V73.1z"/><g transform="rotate(28 54.184 225.618)"><mask id="p" fill="#fff"><use xlink:href="#o"/></mask><g mask="url(#p)"><path fill="#E9CBA3" d="M112.167 190.174l8.498-4.518 7.162 46.91-11.334 6.025z"/><use fill="#FFF4BD" transform="rotate(88 -16.05 167.392)" xlink:href="#q"/><path fill="#FBDE8A" d="M91.863 181.214c4.635 8.715 4.845 42.387 24.537 61.995 13.129 13.072 4.866 15.105-24.787 6.1-3.127-41.44-4.797-64.057-5.01-67.85-.112-2.024-4.204-7.58-4.317-11.567-.043-1.507.194-2.805 2.44-5.158-1.26 1.726.097 5.92.987 7.595 1.877 3.527 4.394 5.584 6.15 8.885z"/><path fill="#353541" d="M86.543 163.69c.905-.531 1.583.078 2.033 1.827.019-2.179.087-3.71.204-4.592-.674.104-3.596 3.561-2.237 2.765zm27.914-.419c-.94-.466-1.535.295-1.784 2.284-.178-2.787-.38-4.703-.605-5.748-.338-1.567 3.8 4.164 2.389 3.464zm-16.69-8.39c1 .451 1.718 1.56 2.15 3.326.174-1.787.812-2.943 1.914-3.468l-4.064.142z"/><path stroke="#353541" stroke-width="1.494" d="M91.394 253.266l36.561-3.705c-8.587-39.238-12.968-61.96-13.164-68.318-.045-1.456.272-2.153 2.022-5.232 1.177-2.071 1.695-3.344 1.787-4.794.255-4.028-1.798-8.145-5.18-9.755l-.322-.154-.083-.347c-.774-3.236-1.995-5.137-4.795-6.435-2.822-1.307-5.89-.992-7.845.252l-.403.256-.402-.259c-1.761-1.133-5.199-1.07-7.382.292-2.498 1.558-3.55 3.04-4.425 6.821l-.08.35-.323.155c-3.885 1.871-5.283 5.797-4.64 10.065.117.786.424 1.671.92 2.722.268.566.566 1.136 1.011 1.945 1.79 3.256 2.094 3.902 2.14 5.096.248 6.334 1.783 30.024 4.603 71.045z"/></g></g><g transform="rotate(28 54.184 226.066)"><mask id="s" fill="#fff"><use xlink:href="#r"/></mask><g mask="url(#s)"><path fill="#E9CBA3" d="M162.747 166.885l37.911 24.226-24.453-31.382z"/><use fill="#FFF4BD" transform="rotate(43 -41.562 326.075)" xlink:href="#t"/><path fill="#FBDE8A" d="M171.04 159.968c10.416 8.344 33.697 25.944 58.28 25.762 16.39-.122 13.013 7.077-10.13 21.597-30.87-26.537-47.692-41.046-50.467-43.527-1.48-1.323-8.163-2.335-11.004-5.019-1.074-1.014-3.057-7.299-1.028-8.333-.644 1.74 1.983 5.315 4.364 6.633 5.066 2.804 8.628 1.8 9.984 2.887z"/><path fill="#353541" d="M156.418 151.513c.26-.995 1.151-1.043 2.675-.142-1.497-1.523-2.51-2.63-3.04-3.324-.396.54-.024 4.96.365 3.466zm18.856-19.591c-.975.328-.859 1.267.348 2.818-2.055-1.808-3.523-2.996-4.403-3.564-1.32-.852 5.517.253 4.055.746zm-16.945 5.602c1.006-.38 2.27-.109 3.795.815-1.119-1.359-1.478-2.602-1.078-3.728l-2.717 2.913z"/><path stroke="#353541" stroke-width="1.494" d="M221.772 210.203l22.75-27.879c-33.122-21.223-51.891-33.922-56.432-38.192-1.042-.98-1.306-1.682-2.227-5.032-.618-2.248-1.14-3.487-2.08-4.553-2.608-2.962-6.876-4.39-10.328-3.164l-.337.12-.304-.187c-2.774-1.703-4.933-2.173-7.767-1.132-2.856 1.048-4.761 3.389-5.253 5.6l-.104.466-.467.101c-2 .434-4.334 2.856-4.902 5.307-.651 2.806-.354 4.558 1.656 7.78l.19.304-.118.338c-1.394 3.981.353 7.663 3.75 10.17.625.462 1.45.862 2.52 1.245.577.207 1.178.395 2.047.647 3.498 1.016 4.157 1.253 5.019 2.05 4.558 4.215 22.026 19.558 52.387 46.011z"/></g></g><path fill="#FFD058" d="M275.479 75.235c6.418.037 6.891-.36 11.371-5.303.183 6.352.257 7.022 5.305 11.376-6.801.223-7.341.475-11.372 5.303-.257-6.265-.383-6.793-5.304-11.376zm-8.545 156.618c5.874.034 6.306-.329 10.406-4.852.167 5.812.235 6.426 4.855 10.41-6.224.204-6.719.434-10.407 4.853-.235-5.734-.351-6.217-4.854-10.41zM.97 161.899c7.804-4.815 8.076-5.653 9.762-15.033 5.03 7.556 5.626 8.313 15.038 9.766-8.07 5.418-8.534 6.132-9.762 15.033-5.054-7.396-5.608-7.94-15.038-9.766z"/></g><path fill="#FAE1CA" d="M190.25 82.5c0 18.917-15.334 34.25-34.25 34.25s-34.25-15.333-34.25-34.25S137.084 48.25 156 48.25s34.25 15.333 34.25 34.25"/><path fill="#FFA039" d="M141.142 95.147a14.942 14.942 0 0 0-5.852 1.155c.661-2.314 2.048-5.133 3.515-6.548a16.691 16.691 0 0 1-.027-.114c-1.893-.443-2.492-.265-5.188.283.8-3.236 2.647-4.44 4.937-6.495.04-.272.086-.541.139-.809-.085-.717-.395-1.922-.932-3.613l-1.595-13.464a.471.471 0 0 1 .634-.497l12.713 4.77a18.707 18.707 0 0 1 6.976-1.336c2.492 0 4.867.483 7.028 1.358l12.733-4.788a.471.471 0 0 1 .633.5l-1.775 14.004c-.614 2.299-.784 3.572-.508 3.82 2.319 2.089 3.64 3.35 4.73 6.295-2.564-.45-3.177-.478-5.164 0 1.5 1.385 3 4.673 3.675 7.035-1.997-.845-4.162-1.321-6.147-1.385-3.228 4.778-8.832 7.938-15.205 7.938-6.45 0-12.111-3.236-15.32-8.11z"/><path fill="#FFF" d="M143.733 98.077c-1.975-2.397-2.748-3.522-2.32-3.374 5.922 2.05 7.404-5.603 14.998-5.603 7.594 0 9.335 7.629 15.241 5.603.41-.14-.445.984-2.563 3.374-3.453 3.492-7.679 5.238-12.678 5.238-5 0-9.225-1.746-12.678-5.238z"/><g fill="#000" style="mix-blend-mode:soft-light" transform="translate(133.846 64.279)"><use fill-opacity=".7" xlink:href="#u"/><use fill-opacity=".25" xlink:href="#u"/></g><path fill="#FFE3AF" d="M177.67 96.088c-3.64-1.012-.135-.027-1.608-.447-.211-2.442-.983-4.065-2.031-5.916 1.506-.532 3.263 4.196 3.64 6.363z"/><path fill="#E7E7E7" d="M140.834 94.852c3.629 5.03 8.764 8.768 15.714 8.504 6.95-.265 13.996-5.11 15.017-8.504-2.484 3.627-8.348 7.478-15.017 7.478-6.669 0-11.593-4.99-12.687-7.217-1.138 0-3.027-.87-3.027-.26z"/><g fill="#000" style="mix-blend-mode:soft-light" transform="translate(133.846 64.279)"><use fill-opacity=".7" xlink:href="#v"/><use fill-opacity=".25" xlink:href="#v"/></g><path fill="#FFE3AF" d="M179.027 89.887c-.292-1.17-1.205-3.86-4.561-6.707-1.553-6.648-4.978-9.913-5.946-9.804-.595.067 4.185 3.084 4.873 10.124 1.321 1.12 3.234 3.003 3.988 5.782.372 1.37.998-.377 1.646.605z"/><path fill="#FF812E" d="M156.468 88.343c-3.793 0-6.734 2.222-10.367 2.222-3.633 0-6.51-3.637-6.51-6.78 0-3.145 2.17-7.16 6.51-7.16s5.86 3.226 10.367 3.226c4.507 0 5.934-3.227 10.43-3.227 4.495 0 6.575 4.463 6.575 7.16s-2.803 6.781-6.576 6.781c-3.772 0-6.636-2.222-10.43-2.222z"/><path fill="#F26805" d="M176.716 64.844c-2.943 4.2-5.133 6.237-7.793 8.536 1.707.9 4.545 5.243 5.404 9.771 1.03-3.836 2.39-12.138 2.39-18.307zm-40.331 0c2.943 4.2 5.133 6.237 7.793 8.536-1.707.9-4.545 5.243-5.404 9.771-1.03-3.836-2.39-12.138-2.39-18.307z"/><path stroke="#31323D" stroke-linecap="round" stroke-linejoin="round" stroke-width=".85" d="M141.044 95.034c-1.928-.042-4.016.346-5.958 1.428.43-2.74 2.264-5.63 3.511-6.857-1.763-.382-3.418-.41-4.963.325.36-1.474 2.168-4.37 4.937-6.694 1.36-8.274 8.853-14.601 17.89-14.601 9.032 0 16.52 6.319 17.888 14.584 2.781 2.326 4.597 5.234 4.958 6.711-1.545-.735-3.2-.707-4.964-.325 1.248 1.226 3.082 4.118 3.512 6.857-1.948-1.086-4.043-1.472-5.977-1.428-3.19 4.934-8.902 8.222-15.416 8.222-6.515 0-12.227-3.288-15.418-8.222z"/><path fill="#31323D" d="M152.728 91.66c.585-.558 1.838-1.376 4.123-1.347 2.285.03 3.356.857 3.86 1.437.25.291.305.706.139 1.054a1.34 1.34 0 0 1-1.19.776c-.645.009-1.543.184-2.122.988a.856.856 0 0 1-.123.137l-.024.021a1.126 1.126 0 0 1-1.62-.12s-.45-.823-2.172-.99a1.33 1.33 0 0 1-1.119-.899l.002-.023a.966.966 0 0 1 .246-1.034z"/><path stroke="#31323D" stroke-linecap="round" stroke-linejoin="round" stroke-width=".85" d="M138.66 82.468c-1.46-5.412-2.48-12.423-2.48-17.667 3.865.83 8.25 2.579 13.158 5.244m24.955 12.423c1.461-5.412 2.48-12.423 2.48-17.667-3.865.83-8.25 2.579-13.158 5.244"/><g transform="translate(141 77.298)"><circle cx="5.508" cy="6.3" r="5.4" fill="#FFF"/><circle cx="5.75" cy="5.608" r="3.15" fill="#31323D" stroke="#FFA039"/><ellipse cx="7.1" cy="3.844" fill="#FFF" rx="1.8" ry="1.837"/><circle cx="5.508" cy="6.3" r="5.4" stroke="#31323D" stroke-width=".85"/></g><g transform="translate(160.25 77.298)"><circle cx="6.162" cy="6.3" r="5.4" fill="#FFF"/><circle cx="5.85" cy="5.608" r="3.15" fill="#31323D" stroke="#FFA039"/><ellipse cx="7.2" cy="3.844" fill="#FFF" rx="1.8" ry="1.837"/><circle cx="6.3" cy="6.3" r="5.4" stroke="#31323D" stroke-width=".85"/></g></g></svg>